<svg width="50" height="50" viewBox="0 0 50 50" fill="none" xmlns="http://www.w3.org/2000/svg">
<path d="M37.4997 14.5834H39.583V16.6667C39.583 17.2193 39.8025 17.7492 40.1932 18.1399C40.5839 18.5306 41.1138 18.7501 41.6663 18.7501C42.2189 18.7501 42.7488 18.5306 43.1395 18.1399C43.5302 17.7492 43.7497 17.2193 43.7497 16.6667V14.5834H45.833C46.3855 14.5834 46.9155 14.3639 47.3062 13.9732C47.6968 13.5825 47.9163 13.0526 47.9163 12.5001C47.9163 11.9475 47.6968 11.4176 47.3062 11.0269C46.9155 10.6362 46.3855 10.4167 45.833 10.4167H43.7497V8.33339C43.7497 7.78086 43.5302 7.25095 43.1395 6.86025C42.7488 6.46955 42.2189 6.25006 41.6663 6.25006C41.1138 6.25006 40.5839 6.46955 40.1932 6.86025C39.8025 7.25095 39.583 7.78086 39.583 8.33339V10.4167H37.4997C36.9471 10.4167 36.4172 10.6362 36.0265 11.0269C35.6358 11.4176 35.4163 11.9475 35.4163 12.5001C35.4163 13.0526 35.6358 13.5825 36.0265 13.9732C36.4172 14.3639 36.9471 14.5834 37.4997 14.5834ZM41.6663 33.3334C40.3732 33.34 39.1139 33.7477 38.0622 34.5001L32.958 31.4792C33.1988 30.7317 33.3253 29.9521 33.333 29.1667C33.327 27.3239 32.7104 25.535 31.5795 24.08C30.4486 22.6249 28.8673 21.5858 27.083 21.1251V16.2917C28.473 15.8003 29.6446 14.8332 30.3906 13.5616C31.1366 12.2899 31.409 10.7954 31.1597 9.34228C30.9104 7.88917 30.1554 6.57097 29.0281 5.62067C27.9009 4.67038 26.474 4.14917 24.9997 4.14917C23.5253 4.14917 22.0984 4.67038 20.9712 5.62067C19.844 6.57097 19.089 7.88917 18.8397 9.34228C18.5904 10.7954 18.8628 12.2899 19.6088 13.5616C20.3548 14.8332 21.5263 15.8003 22.9163 16.2917V21.1251C21.132 21.5858 19.5507 22.6249 18.4199 24.08C17.289 25.535 16.6723 27.3239 16.6663 29.1667C16.6741 29.9521 16.8005 30.7317 17.0413 31.4792L11.9372 34.5001C10.8854 33.7477 9.62616 33.34 8.33301 33.3334C7.09688 33.3334 5.8885 33.6999 4.8607 34.3867C3.83289 35.0735 3.03181 36.0496 2.55876 37.1916C2.08572 38.3337 1.96194 39.5903 2.2031 40.8027C2.44426 42.0151 3.03952 43.1287 3.91359 44.0028C4.78767 44.8769 5.90131 45.4721 7.1137 45.7133C8.32608 45.9545 9.58274 45.8307 10.7248 45.3576C11.8668 44.8846 12.8429 44.0835 13.5297 43.0557C14.2165 42.0279 14.583 40.8195 14.583 39.5834C14.5753 39.0191 14.4912 38.4584 14.333 37.9167L19.1247 35.0626C20.686 36.6146 22.7981 37.4858 24.9997 37.4858C27.2012 37.4858 29.3133 36.6146 30.8747 35.0626L35.6663 37.9167C35.3173 39.1784 35.3732 40.5178 35.8261 41.746C36.2791 42.9742 37.1063 44.0292 38.191 44.7621C39.2757 45.495 40.5632 45.8688 41.8717 45.8307C43.1802 45.7927 44.4438 45.3447 45.484 44.55C46.5243 43.7554 47.2888 42.6541 47.6697 41.4017C48.0505 40.1492 48.0285 38.8088 47.6067 37.5695C47.1849 36.3303 46.3847 35.2547 45.3188 34.4947C44.253 33.7346 42.9754 33.3284 41.6663 33.3334ZM8.33301 41.6667C7.92097 41.6667 7.51818 41.5445 7.17557 41.3156C6.83297 41.0867 6.56594 40.7613 6.40826 40.3806C6.25058 40 6.20932 39.5811 6.28971 39.177C6.37009 38.7728 6.56851 38.4016 6.85987 38.1102C7.15123 37.8189 7.52245 37.6205 7.92657 37.5401C8.3307 37.4597 8.74959 37.501 9.13027 37.6586C9.51095 37.8163 9.83632 38.0834 10.0652 38.426C10.2942 38.7686 10.4163 39.1713 10.4163 39.5834C10.4163 40.1359 10.1968 40.6658 9.80615 41.0565C9.41545 41.4472 8.88554 41.6667 8.33301 41.6667ZM24.9997 8.33339C25.4117 8.33339 25.8145 8.45558 26.1571 8.6845C26.4997 8.91342 26.7667 9.23879 26.9244 9.61947C27.0821 10.0001 27.1234 10.419 27.043 10.8232C26.9626 11.2273 26.7642 11.5985 26.4728 11.8899C26.1815 12.1812 25.8102 12.3796 25.4061 12.46C25.002 12.5404 24.5831 12.4992 24.2024 12.3415C23.8217 12.1838 23.4964 11.9168 23.2674 11.5742C23.0385 11.2316 22.9163 10.8288 22.9163 10.4167C22.9163 9.86419 23.1358 9.33429 23.5265 8.94359C23.9172 8.55289 24.4471 8.33339 24.9997 8.33339ZM24.9997 33.3334C24.1756 33.3334 23.37 33.089 22.6848 32.6312C21.9996 32.1733 21.4655 31.5226 21.1502 30.7612C20.8348 29.9999 20.7523 29.1621 20.9131 28.3538C21.0738 27.5456 21.4707 26.8032 22.0534 26.2204C22.6361 25.6377 23.3785 25.2409 24.1868 25.0801C24.9951 24.9193 25.8328 25.0019 26.5942 25.3172C27.3555 25.6326 28.0063 26.1666 28.4641 26.8519C28.922 27.5371 29.1663 28.3426 29.1663 29.1667C29.1663 30.2718 28.7274 31.3316 27.946 32.113C27.1646 32.8944 26.1047 33.3334 24.9997 33.3334ZM41.6663 41.6667C41.2543 41.6667 40.8515 41.5445 40.5089 41.3156C40.1663 41.0867 39.8993 40.7613 39.7416 40.3806C39.5839 40 39.5427 39.5811 39.623 39.177C39.7034 38.7728 39.9018 38.4016 40.1932 38.1102C40.4846 37.8189 40.8558 37.6205 41.2599 37.5401C41.664 37.4597 42.0829 37.501 42.4636 37.6586C42.8443 37.8163 43.1697 38.0834 43.3986 38.426C43.6275 38.7686 43.7497 39.1713 43.7497 39.5834C43.7497 40.1359 43.5302 40.6658 43.1395 41.0565C42.7488 41.4472 42.2189 41.6667 41.6663 41.6667Z" fill="#FFCB65"/>
</svg>
