<svg width="339" height="236" viewBox="0 0 339 236" fill="none" xmlns="http://www.w3.org/2000/svg">
<path d="M280.348 223.913H74.3318V225.265H280.348V223.913Z" fill="white"/>
<path d="M144.27 169.807C146.058 155.829 139.564 132.582 137.232 126.193C135.06 120.241 132.664 111.264 132.624 107.076C132.618 106.794 132.627 106.513 132.651 106.232C132.635 105.482 132.394 104.754 131.958 104.145L130.761 109.023L127.69 102.833L128.794 100.285C128.464 99.9471 128.124 99.6045 127.775 99.2663C125.34 96.9517 122.791 94.7621 120.138 92.706V91.8042L95.559 97.6657L95.4249 97.7694C93.5452 99.422 92.0823 101.502 91.1571 103.838C90.9783 104.267 90.8085 104.74 90.6477 105.191L92.4933 106.882L90.0756 107.229C90.0756 107.324 90.0309 107.423 90.0131 107.522L93.253 114.998L90.4868 120.579C90.6387 121.22 90.813 121.878 91.0096 122.55C91.3805 123.817 91.823 125.138 92.3503 126.513C94.3256 131.658 93.0162 136.604 89.669 139.291C86.3217 141.978 81.0038 153.417 87.3362 160.816C93.6686 168.215 92.6676 177.291 90.0175 183.009C87.4256 188.559 82.9522 196.328 92.1537 206.319C92.4307 206.617 92.7168 206.919 93.0162 207.221H107.348L107.428 207.009C107.491 206.856 107.58 206.621 107.697 206.319C108.836 203.397 112.505 194.064 115.012 188.735C116.983 184.542 119.812 175.713 120.679 164.915C120.831 165.145 120.987 165.366 121.126 165.596C122.413 167.426 123.807 169.09 125.036 170.709C129.505 176.57 127.217 177.981 124.884 190.096C123.132 199.182 127.619 204.033 129.965 205.877C130.386 206.216 130.834 206.518 131.306 206.779L143.372 206.328C143.439 206.193 143.501 206.04 143.564 205.877C145.557 200.368 143.028 179.523 144.27 169.807Z" fill="#FFCB65"/>
<path d="M95.1118 97.8419V89.3248H96.4525V96.1376L118.824 90.8984L116.741 84.7889L118.006 84.3516L120.576 91.8768L95.1118 97.8419Z" fill="white"/>
<path d="M128.119 51.7161C126.056 49.5782 123.548 47.928 120.777 46.8841C118.007 45.8402 115.041 45.4286 112.094 45.6788L105.113 46.265L105.225 47.6176L112.201 47.0314C114.952 46.7958 117.72 47.1787 120.306 48.1525C122.893 49.1263 125.233 50.6668 127.158 52.663L156.961 83.4627L138.764 102.251L128.436 87.6604L137.937 80.3561L120.093 63.7366L116.965 53.5061L115.687 53.9029L124.177 81.7899L90.6607 90.1538C90.9154 83.5303 91.7824 60.5805 91.5545 59.4217L90.2406 59.6967C90.3121 60.1476 90.2406 63.6194 90.1021 68.3537L89.8876 68.2139L76.0518 89.5722L90.473 97.3048L83.8143 114.519L54.2257 98.5131L74.2911 59.1421C75.4117 56.9312 77.0202 55.0092 78.9928 53.524C80.9653 52.0388 83.2493 51.0301 85.6689 50.5754L94.1196 48.9702L93.8694 47.6176L85.4187 49.2408C82.7988 49.7351 80.3263 50.829 78.1911 52.4384C76.0559 54.0478 74.3151 56.1299 73.1024 58.5244L52.4292 99.0767L84.5115 116.431L92.1533 96.6735L77.9735 89.0987L90.0038 70.4863C89.8071 76.7987 89.5211 84.7703 89.2753 91.024L89.2396 91.9258L125.885 82.7864L120.879 66.3337L135.859 80.284L126.591 87.4079L138.608 104.379L158.838 83.4627L128.119 51.7161Z" fill="white"/>
<path d="M95.4964 107.829L91.1571 103.838L89.8477 102.625L88.9986 101.845L86.0312 109.889L86.4245 111.481L89.7494 125.084L91.0007 122.559L94.7277 115.043L91.8274 108.356L95.4964 107.829ZM93.2619 115.007L90.4957 120.589L90.1963 121.197L87.439 109.979L89.5706 104.204L90.6566 105.2L92.5022 106.891L90.0845 107.238L89.9058 107.265L90.022 107.531L93.2619 115.007Z" fill="white"/>
<path d="M130.278 90.4788L129.438 91.4121L125.608 95.6729L129.111 96.1824L127.771 99.2664L126.206 102.874L131.18 112.915L132.619 107.08L134.653 98.802L134.93 97.6658L130.278 90.4788ZM131.958 104.145L130.76 109.024L127.69 102.833L128.794 100.285L131.028 95.0913L128.28 94.699L130.09 92.6791L133.477 97.8868L131.958 104.145Z" fill="white"/>
<path d="M98.468 207.965C94.589 204.538 95.0671 191.977 98.3607 187.225C101.176 183.167 103.205 167.674 96.6849 161.975C94.5309 160.095 93.3645 157.809 93.2215 155.212C92.9265 149.878 96.8547 144.391 100.206 140.734C105.216 135.256 101.453 125.31 101.413 125.21L102.664 124.714C102.834 125.165 106.776 135.536 101.19 141.654C98.5931 144.495 94.2761 150.022 94.5577 155.135C94.6304 156.265 94.9348 157.368 95.4518 158.373C95.9687 159.378 96.6869 160.264 97.5608 160.974C104.711 167.233 102.548 183.568 99.4601 188.027C96.5642 192.198 96.019 204.029 99.3528 206.964L98.468 207.965Z" fill="#585858"/>
<path d="M108.005 207.303L106.799 206.707C116.183 187.319 119.379 170.686 120.42 160.158C121.76 146.686 120.174 137.29 118.409 133.34C114.338 124.205 117.35 112.631 117.479 112.148L118.775 112.5C118.744 112.613 115.759 124.101 119.633 132.79C123.45 141.339 125.626 170.808 108.005 207.303Z" fill="#585858"/>
<path d="M104.358 220.306L109.721 206.328H90.1606L91.0544 223.913L91.1215 225.265H93.5794L94.0263 223.913L94.5089 222.461L96.8417 224.815H109.86V220.306H104.358ZM93.9235 219.954L92.6185 223.913H92.3951L91.5728 207.681H107.764L102.401 221.658H108.519V223.462H97.4003L93.9235 219.954Z" fill="white"/>
<path d="M141.003 219.855L146.366 205.877H126.806L127.735 223.913L127.78 224.814H130.238L130.537 223.913L131.167 222.01L133.5 224.364H146.505V219.855H141.003ZM130.568 219.503L129.264 223.462H129.04L128.218 207.23H144.409L139.046 221.207H145.164V223.011H134.045L130.568 219.503Z" fill="white"/>
<path d="M97.6729 64.9141L96.5736 64.1386C97.5567 62.7229 97.9142 61.5551 97.6416 60.7705C97.5366 60.5308 97.381 60.3171 97.1857 60.1442C96.9905 59.9714 96.7602 59.8435 96.511 59.7696L96.8372 58.4575C97.295 58.5866 97.7179 58.8183 98.0746 59.1353C98.4313 59.4522 98.7126 59.8463 98.8974 60.2881C99.3532 61.5235 98.9421 63.0836 97.6729 64.9141Z" fill="black"/>
<path d="M82.1524 62.01C79.185 61.0136 78.1929 58.1009 78.1304 57.9521L79.3995 57.5012C79.3995 57.5012 80.2352 59.9044 82.5278 60.6844L82.1524 62.01Z" fill="black"/>
<path d="M73.9739 78.9093L72.9014 78.0977C73.4823 77.3132 78.7109 70.4913 82.6749 72.4887L82.076 73.6971C79.5511 72.4166 75.3727 77.0291 73.9739 78.9093Z" fill="black"/>
<path d="M71.2885 71.0636L71.1187 69.711C74.1664 69.3277 75.0066 65.3284 75.0155 65.2878L76.3294 65.5539C76.2892 65.7658 75.2971 70.5541 71.2885 71.0636Z" fill="black"/>
<path d="M64.3481 97.7427C63.7448 96.5253 61.6042 95.9662 60.8311 95.858L61.0187 94.5054C61.1618 94.5279 64.509 95.0329 65.5457 97.1295L64.3481 97.7427Z" fill="black"/>
<path d="M63.4857 89.0132L62.8333 87.8319C62.869 87.8093 66.5112 85.7263 66.5112 83.012H67.8518C67.8518 86.5243 63.6645 88.914 63.4857 89.0132Z" fill="black"/>
<path d="M77.281 95.4115C76.1414 92.35 70.01 93.1301 69.9519 93.1571L69.7732 91.8045C70.0681 91.7684 77.0218 90.9027 78.5322 94.9606L77.281 95.4115Z" fill="black"/>
<path d="M75.2256 107.585V106.232C77.1517 106.232 82.1524 105.7 82.1524 103.302H83.4931C83.4931 107.536 75.5652 107.585 75.2256 107.585Z" fill="black"/>
<path d="M70.0863 102.581L68.7903 102.224C68.8841 101.877 69.7556 98.8293 71.4716 98.2657C71.8092 98.1617 72.1679 98.1487 72.512 98.2278C72.8561 98.3069 73.1738 98.4754 73.4335 98.7165L72.5933 99.7716C72.1956 99.4515 71.9721 99.5236 71.8872 99.5507C71.1231 99.7941 70.3633 101.467 70.0863 102.581Z" fill="black"/>
<path d="M102.048 83.5303C99.107 83.5303 95.6436 81.4608 95.438 81.3391L96.1262 80.1758C97.8423 81.2173 102.642 83.4357 104.17 81.2669L105.261 82.0514C104.496 83.1426 103.317 83.5303 102.048 83.5303Z" fill="black"/>
<path d="M113.363 69.337L112.165 68.7328C112.234 68.5937 112.273 68.4413 112.28 68.2858C112.286 68.1303 112.259 67.9753 112.201 67.831C111.647 66.3026 108.68 64.7335 107.585 64.2601L108.112 63.0156C108.559 63.214 112.581 65.0175 113.475 67.3666C113.593 67.6849 113.644 68.0245 113.624 68.3637C113.605 68.7029 113.516 69.0344 113.363 69.337Z" fill="black"/>
<path d="M104.676 74.9008C102.329 74.9008 98.9419 72.5833 98.5308 72.2947L99.2905 71.1855C100.801 72.2361 103.692 73.8007 105.006 73.5166C105.105 73.5029 105.199 73.467 105.281 73.4116C105.364 73.3562 105.434 73.2826 105.484 73.1965L106.637 73.8908C106.492 74.1343 106.297 74.3443 106.066 74.5074C105.835 74.6705 105.573 74.783 105.297 74.8377C105.092 74.8805 104.884 74.9017 104.676 74.9008Z" fill="black"/>
<path d="M115.222 81.7091L113.881 81.61C113.913 81.1591 114.243 77.2454 116.116 75.7124C116.406 75.4732 116.742 75.2979 117.103 75.1977C117.464 75.0975 117.841 75.0747 118.212 75.1308L118.024 76.4834C117.835 76.454 117.642 76.4657 117.458 76.5178C117.273 76.5699 117.102 76.6612 116.956 76.7855C115.749 77.7549 115.294 80.6676 115.222 81.7091Z" fill="black"/>
<path d="M110.713 56.9107C110.527 56.9115 110.342 56.8779 110.168 56.8115C108.791 56.2975 108.193 53.8807 108.09 53.4028L109.395 53.1052C109.596 54.007 110.141 55.3596 110.633 55.5445C110.673 55.5445 110.78 55.5986 111.021 55.4183L111.826 56.5004C111.51 56.7577 111.119 56.902 110.713 56.9107Z" fill="black"/>
<path d="M125.054 55.0577H123.713C123.713 53.3804 120.366 50.9366 118.256 49.7914L118.891 48.6011C119.521 48.9437 125.054 52.0368 125.054 55.0577Z" fill="black"/>
<path d="M130.131 69.0258C129.049 67.7498 128.553 66.4963 128.665 65.3015C128.743 64.451 129.139 63.6625 129.773 63.0967L130.613 64.1517L130.193 63.6242L130.618 64.1472C130.256 64.4878 130.035 64.9528 129.997 65.4503C129.934 66.2619 130.318 67.1681 131.15 68.1556L130.131 69.0258Z" fill="black"/>
<path d="M146.433 79.2565L145.235 78.6523C146.254 76.5963 141.982 74.1435 141.937 74.1435L142.581 72.9531C142.804 73.0749 148.046 76.0236 146.433 79.2565Z" fill="black"/>
<path d="M135.529 75.8251C133.424 73.7015 135.323 69.8013 135.403 69.6345L136.601 70.2387C136.154 71.1405 135.296 73.6789 136.476 74.8693L135.529 75.8251Z" fill="black"/>
<path d="M134.215 89.379L133.321 88.369C133.612 88.1075 136.217 85.808 138.331 86.331C138.776 86.4535 139.182 86.6896 139.51 87.0166C139.838 87.3435 140.077 87.7503 140.203 88.1977L138.952 88.6485C138.63 87.7829 138.166 87.6701 138.014 87.6296C136.803 87.3455 134.818 88.8334 134.215 89.379Z" fill="black"/>
<path d="M139.247 95.9435C138.871 95.9436 138.496 95.9135 138.125 95.8533L138.344 94.5006C138.536 94.5322 143.072 95.2221 143.832 90.9883L145.173 91.2318C144.48 94.9876 141.437 95.9435 139.247 95.9435Z" fill="black"/>
<path d="M147.608 83.9774L146.737 82.9493C146.934 82.778 148.717 81.2901 150.415 81.6373C150.818 81.7263 151.194 81.911 151.512 82.176C151.83 82.4411 152.08 82.7789 152.243 83.1613L151.045 83.7654C150.968 83.571 150.847 83.3973 150.692 83.258C150.537 83.1187 150.352 83.0177 150.151 82.9629C149.253 82.787 148.011 83.6347 147.608 83.9774Z" fill="black"/>
<path d="M116.282 40.9809C115.526 40.4306 114.717 39.9578 113.868 39.5696C112.975 39.1548 112.975 39.1548 112.975 37.473C112.921 36.0248 112.63 34.5955 112.112 33.2438C112.657 30.9893 113.046 24.9746 101.65 24.9881C101.65 24.9881 97.6015 23.9826 96.8731 27.1659C96.8731 27.1659 96.8731 27.2019 96.8731 27.2245C96.1849 30.4798 92.3774 29.4789 91.1439 31.2193C89.9105 32.9597 90.4736 33.875 91.0009 35.9761C91.5283 38.0772 89.7765 37.4279 88.266 38.5732C86.7555 39.7184 84.7936 41.2785 87.4079 42.568L95.3492 44.2588L93.8878 47.167C93.7065 47.5231 93.5995 47.913 93.5735 48.3125C93.5475 48.712 93.603 49.1127 93.7366 49.4897C93.8703 49.8667 94.0792 50.212 94.3504 50.5042C94.6216 50.7965 94.9494 51.0295 95.3134 51.1888L101.467 53.8941C101.835 54.0554 102.232 54.1398 102.633 54.1421C103.028 54.1409 103.418 54.0587 103.78 53.9006C104.142 53.7425 104.468 53.5118 104.739 53.2225C105.01 52.9332 105.22 52.5913 105.356 52.2177C105.491 51.8441 105.551 51.4465 105.529 51.0491L105.176 44.3174C105.514 44.2681 105.844 44.171 106.155 44.0288C107.178 44.0604 109.283 44.0784 110.07 44.0784C114.36 44.0784 116.702 43.5735 117.041 42.568C117.171 42.1802 117.144 41.5986 116.282 40.9809ZM106.285 42.3426C106.018 42.5839 105.705 42.7666 105.365 42.8792C105.025 42.9917 104.666 43.0316 104.309 42.9963C103.778 42.948 103.257 42.8141 102.768 42.5996C102.673 42.1247 102.424 41.695 102.061 41.3777C100.336 39.8356 98.902 38.6002 100.113 37.446C101.324 36.2917 101.078 34.7948 100.229 33.5774C100.221 33.566 100.213 33.554 100.207 33.5413C100.115 33.3972 100.076 33.2254 100.096 33.0553C100.116 32.8853 100.193 32.7274 100.316 32.6087C100.438 32.49 100.598 32.4179 100.767 32.4046C100.936 32.3913 101.105 32.4377 101.244 32.5359L103.031 33.8119L107.987 33.9652C107.987 34.0148 107.987 34.0689 107.987 34.123C107.985 34.1439 107.985 34.1651 107.987 34.1861V34.2943C107.99 34.3168 107.99 34.3395 107.987 34.3619C108.045 35.3088 107.987 39.0421 107.093 41.3416C106.876 41.7149 106.603 42.0524 106.285 42.3426ZM103.523 52.4874C103.304 52.6426 103.049 52.7383 102.783 52.7651C102.517 52.792 102.248 52.7491 102.003 52.6407L95.8497 49.9354C95.654 49.8494 95.4778 49.7239 95.332 49.5666C95.1862 49.4094 95.0738 49.2236 95.0018 49.0209C94.9298 48.8181 94.8996 48.6027 94.9133 48.3878C94.9269 48.1728 94.984 47.963 95.081 47.7712L96.7122 44.5519L102.075 45.6926C102.377 45.1734 102.598 44.6108 102.732 44.0243C103.09 44.1491 103.457 44.2427 103.831 44.3039L104.189 51.1077C104.204 51.3759 104.15 51.6435 104.034 51.885C103.917 52.1265 103.741 52.3339 103.523 52.4874ZM107.992 42.6762C108.116 42.4519 108.227 42.22 108.322 41.9818C109.694 39.6643 109.663 36.427 109.359 34.0734V34.0193L110.986 34.0689C111.381 35.1618 111.604 36.3104 111.647 37.473C111.647 39.7951 111.938 40.1513 113.301 40.796C114.076 41.1484 114.814 41.5789 115.504 42.081L115.611 42.1622C114.624 42.5905 111.142 42.7664 107.969 42.6582L107.992 42.6762Z" fill="white"/>
<path d="M208.399 44.4622C207.825 44.4622 207.263 44.634 206.785 44.9561C206.308 45.2781 205.935 45.7358 205.715 46.2713C205.496 46.8069 205.438 47.3961 205.55 47.9646C205.662 48.5332 205.939 49.0554 206.345 49.4652C206.751 49.8751 207.269 50.1542 207.832 50.2673C208.396 50.3804 208.98 50.3224 209.511 50.1005C210.042 49.8787 210.495 49.5031 210.814 49.0211C211.134 48.5392 211.304 47.9725 211.304 47.3929C211.303 46.616 210.996 45.8712 210.452 45.3219C209.907 44.7725 209.169 44.4634 208.399 44.4622ZM208.399 48.971C208.09 48.971 207.787 48.8784 207.53 48.705C207.273 48.5316 207.072 48.2852 206.954 47.9968C206.836 47.7084 206.805 47.3911 206.865 47.085C206.925 46.7789 207.074 46.4977 207.293 46.277C207.512 46.0563 207.791 45.906 208.094 45.8451C208.397 45.7842 208.712 45.8155 208.998 45.9349C209.284 46.0544 209.528 46.2566 209.7 46.5162C209.872 46.7757 209.963 47.0808 209.963 47.3929C209.963 47.8114 209.799 48.2128 209.505 48.5088C209.212 48.8047 208.814 48.971 208.399 48.971Z" fill="white"/>
<path d="M170.413 50.7742C169.927 50.7742 169.452 50.9196 169.048 51.1921C168.643 51.4646 168.328 51.8519 168.142 52.305C167.956 52.7582 167.908 53.2568 168.003 53.7378C168.097 54.2189 168.331 54.6607 168.675 55.0075C169.019 55.3544 169.457 55.5905 169.934 55.6862C170.41 55.7819 170.905 55.7328 171.354 55.5451C171.803 55.3574 172.187 55.0396 172.457 54.6317C172.727 54.2239 172.871 53.7445 172.871 53.254C172.87 52.5967 172.611 51.9666 172.15 51.5018C171.689 51.037 171.065 50.7754 170.413 50.7742ZM170.413 54.3812C170.192 54.3812 169.976 54.3151 169.793 54.1913C169.609 54.0674 169.466 53.8914 169.381 53.6854C169.296 53.4794 169.274 53.2528 169.317 53.0341C169.361 52.8155 169.467 52.6146 169.623 52.457C169.779 52.2993 169.979 52.192 170.195 52.1485C170.412 52.105 170.637 52.1273 170.841 52.2126C171.045 52.2979 171.219 52.4424 171.342 52.6278C171.465 52.8131 171.53 53.0311 171.53 53.254C171.53 53.553 171.413 53.8397 171.203 54.0511C170.994 54.2625 170.71 54.3812 170.413 54.3812Z" fill="white"/>
<path d="M205.271 93.6079C204.431 93.6079 203.61 93.8591 202.912 94.3298C202.214 94.8005 201.67 95.4694 201.348 96.2521C201.027 97.0348 200.943 97.896 201.107 98.7269C201.271 99.5578 201.675 100.321 202.269 100.92C202.862 101.519 203.619 101.927 204.442 102.092C205.266 102.258 206.12 102.173 206.895 101.849C207.671 101.524 208.334 100.975 208.801 100.271C209.267 99.5666 209.516 98.7385 209.516 97.8913C209.515 96.7556 209.067 95.6668 208.271 94.8638C207.475 94.0608 206.396 93.6091 205.271 93.6079ZM205.271 100.822C204.696 100.822 204.134 100.65 203.657 100.328C203.179 100.006 202.807 99.5484 202.587 99.0128C202.367 98.4773 202.31 97.888 202.422 97.3195C202.534 96.751 202.81 96.2288 203.217 95.8189C203.623 95.4091 204.14 95.13 204.704 95.0169C205.267 94.9038 205.851 94.9618 206.382 95.1836C206.913 95.4055 207.367 95.7811 207.686 96.2631C208.005 96.745 208.175 97.3116 208.175 97.8913C208.174 98.6682 207.868 99.413 207.323 99.9623C206.779 100.512 206.041 100.821 205.271 100.822Z" fill="white"/>
<path d="M171.754 112.545C170.914 112.545 170.093 112.796 169.395 113.267C168.697 113.737 168.153 114.406 167.831 115.189C167.51 115.972 167.426 116.833 167.59 117.664C167.754 118.495 168.158 119.258 168.752 119.857C169.346 120.456 170.102 120.864 170.926 121.029C171.749 121.195 172.603 121.11 173.378 120.786C174.154 120.461 174.817 119.912 175.284 119.208C175.75 118.504 175.999 117.675 175.999 116.828C175.998 115.693 175.55 114.604 174.754 113.801C173.959 112.998 172.879 112.546 171.754 112.545ZM171.754 119.759C171.179 119.759 170.618 119.587 170.14 119.265C169.662 118.943 169.29 118.485 169.07 117.95C168.85 117.414 168.793 116.825 168.905 116.257C169.017 115.688 169.294 115.166 169.7 114.756C170.106 114.346 170.624 114.067 171.187 113.954C171.751 113.841 172.335 113.899 172.865 114.121C173.396 114.342 173.85 114.718 174.169 115.2C174.488 115.682 174.659 116.249 174.659 116.828C174.657 117.605 174.351 118.35 173.806 118.899C173.262 119.449 172.524 119.758 171.754 119.759Z" fill="white"/>
<path d="M226.051 30.9354H192.329V16.2817H190.988V30.9354H160.358V126.071H187.913L172.563 223.913L172.46 224.58L173.801 224.792L173.939 223.913L189.281 126.071H193.946L193.875 223.913V224.364H195.216V223.913L195.274 126.071H200.833L216.474 223.913L216.671 225.148L218.011 224.932L217.851 223.913L202.209 126.071H226.051V30.9354ZM224.71 124.719H161.699V32.288H224.71V124.719Z" fill="white"/>
<path d="M174.086 105.029C174.466 105.236 174.864 105.448 175.28 105.66C178.192 107.1 181.175 108.388 184.217 109.52L185.759 110.106C187.177 110.638 188.649 111.18 190.175 111.734L191.457 112.184L193.549 112.942L193.955 113.091L195.296 113.578C196.547 114.029 197.806 114.479 199.072 114.93L200.52 115.467C203.358 116.517 206.218 117.613 209.056 118.767C212.34 120.12 214.543 120.751 215.938 120.751C216.8 120.751 217.354 120.503 217.658 120.016C219.088 117.703 212.742 111.337 197.906 97.7787L197.655 97.5488L196.06 96.0924L195.305 95.4071L194.411 94.591L194.237 94.4332L193.964 94.1852L193.07 93.3556C191.046 91.516 189.017 89.6674 187.051 87.8548C189.589 86.7502 192.025 85.7176 194.322 84.7437L194.429 84.6987C194.804 84.5363 195.175 84.383 195.542 84.2207C198.165 83.1115 200.556 82.088 202.692 81.1322C203.455 80.7895 204.183 80.4544 204.877 80.1267C211.022 77.223 214.302 74.9235 213.556 72.4076L212.269 72.7954C212.756 74.4366 209.395 76.5197 204.064 79.0175C203.435 79.3181 202.78 79.6187 202.098 79.9193C200.037 80.8436 197.754 81.822 195.336 82.85L194.688 83.1296L193.794 83.4993C191.783 84.356 189.676 85.2577 187.471 86.2046L185.96 86.8584L185.513 86.4616C181.858 83.0755 178.484 79.8562 175.816 77.0923C172.759 73.9361 171.521 70.4237 172.143 66.6814C173.161 60.4998 178.98 54.4806 184.933 49.7959C185.286 49.5163 185.643 49.2413 185.996 48.9708C190.072 45.8952 194.38 43.1455 198.88 40.7467L198.272 39.5383C193.681 41.9613 189.289 44.7507 185.138 47.8796L184.074 48.7048C177.943 53.5337 171.915 59.828 170.82 66.456C170.127 70.6492 171.486 74.5448 174.842 78.0391C177.523 80.8166 180.915 84.0494 184.579 87.449C181.804 88.6664 178.913 89.974 175.928 91.3807C170.565 93.9057 168.147 96.2638 168.268 98.7977C168.402 101.043 170.534 103.05 174.086 105.029ZM176.509 92.6432C178.767 91.5731 180.97 90.5616 183.118 89.6088L185.652 88.4951C187.971 90.6323 190.38 92.8235 192.771 94.9968L193.482 95.6461L193.955 96.0969L195.274 97.2963L196.091 98.0402L196.373 98.2972L197.964 99.7446C202.46 103.852 206.79 107.86 210.088 111.188C216.72 117.87 216.581 119.173 216.487 119.362C216.461 119.394 215.728 120.106 209.525 117.581C206.437 116.324 203.327 115.142 200.243 114.001L198.817 113.447L195.282 112.162L193.987 111.711H193.942L191.64 110.845L190.358 110.394C189.236 109.989 188.123 109.578 187.051 109.173C186.546 108.988 186.045 108.798 185.549 108.609C182.22 107.386 178.956 105.988 175.771 104.42C175.36 104.213 174.962 104.001 174.587 103.789C171.557 102.103 169.671 100.439 169.595 98.7887C169.528 96.904 171.848 94.8435 176.509 92.6432Z" fill="white"/>
<path d="M223.593 223.011C223.593 223.011 226.721 211.739 237 209.034C247.278 206.329 258.451 216.248 262.026 209.034C265.601 201.82 258.451 184.235 268.729 187.842C279.008 191.449 271.857 210.837 280.795 213.543C289.733 216.248 289.286 225.266 289.286 225.266H223.674L223.593 223.011Z" fill="white"/>
<path d="M56.6794 225.265C58.0201 225.716 85.8614 225.265 85.8614 225.265C85.8614 225.265 87.068 217.149 79.024 214.895C70.9799 212.64 72.3206 213.091 71.8737 201.819C71.4268 190.547 69.1924 172.963 62.489 181.981C55.7857 190.998 59.3608 201.819 53.1043 207.23C46.8478 212.64 44.1665 215.346 44.1665 225.265H56.6794Z" fill="white"/>
<path d="M294.774 109.962L268.197 129.133L249.191 102.315L275.772 83.1431L294.774 109.962Z" fill="black"/>
<path d="M204.833 80.1671L204.033 79.626V79.0579C203.917 76.2268 203.26 73.4449 202.098 70.8654C203.555 69.5127 204.958 68.2052 206.29 66.9788C213.154 60.6664 217.296 56.8385 216.34 54.1873C215.773 52.6317 213.605 51.8562 209.319 51.6759C202.553 51.3924 195.776 51.8352 189.102 52.9969L185.974 49.0066L185.71 48.673C185.5 48.407 185.299 48.1545 185.116 47.9155C184.307 46.8965 183.69 46.112 183.27 45.607C182.528 44.7052 182.22 44.3265 181.684 44.7413C181.148 45.1561 181.358 45.5033 182.372 46.892L182.502 46.7928C182.864 47.2437 183.364 47.8659 184.052 48.7406L184.937 49.8318C185.67 50.7651 186.564 51.9058 187.618 53.2945C181.362 54.6472 176.482 56.8294 175.642 60.0577C174.802 63.2861 178.051 66.821 185.295 70.5408C188.812 72.3443 192.087 74.0892 195.086 75.78C191.702 79.1775 188.501 82.7551 185.496 86.4975C184.691 87.5119 183.891 88.549 183.109 89.6085C180.493 93.1336 178.14 96.8501 176.071 100.727C175.485 101.832 174.998 102.842 174.596 103.771C174.404 104.222 174.234 104.627 174.078 105.029C172.161 110.047 173.045 112.243 174.319 113.145C175.025 113.632 175.868 113.877 176.723 113.843C179.159 113.843 182.426 112.365 185.737 110.088C186.184 109.786 186.631 109.465 187.078 109.136C188.481 108.082 189.824 106.949 191.1 105.741C191.648 105.224 192.183 104.695 192.704 104.154C192.735 104.122 192.767 104.095 192.793 104.064C193.182 103.658 193.567 103.248 193.946 102.824C194.402 102.316 194.849 101.796 195.287 101.264C195.734 100.718 196.181 100.159 196.605 99.5911C196.78 99.3656 196.95 99.1402 197.11 98.9057C197.271 98.6713 197.522 98.3376 197.718 98.0491L197.892 97.8011C201.302 92.7828 203.702 87.0656 204.001 81.2357C209.954 85.3207 213.721 89.1577 214.557 92.9586C215.107 95.4745 214.383 97.9769 212.323 100.624L213.377 101.453C215.683 98.4819 216.505 95.5917 215.849 92.6745C214.95 88.5039 211.089 84.4685 204.833 80.1671ZM202.638 78.7288C200.994 77.6737 199.214 76.5961 197.298 75.4959C198.567 74.2395 199.816 73.0371 201.043 71.8889C201.957 74.0607 202.496 76.3739 202.638 78.7288ZM209.266 53.0285C213.641 53.2134 214.834 54.0114 215.075 54.6517C215.723 56.4552 210.933 60.8693 205.382 65.9823C204.134 67.1276 202.832 68.3299 201.477 69.5894C200.794 68.2936 200 67.0609 199.104 65.9057C195.528 61.2496 192.507 57.3419 190.041 54.1828C196.393 53.1312 202.835 52.7444 209.266 53.0285ZM185.911 69.3324C179.4 65.9868 176.299 62.8983 176.947 60.4004C177.63 57.7628 182.256 55.7338 188.544 54.4713C190.867 57.4562 193.951 61.442 198.04 66.7443C198.961 67.9355 199.768 69.2128 200.449 70.5588C199.028 71.9114 197.566 73.3092 196.087 74.7836C192.981 73.0386 189.598 71.2261 185.911 69.3324ZM197.405 96.1103C197.236 96.3763 197.066 96.6378 196.887 96.8948C196.708 97.1518 196.503 97.4629 196.306 97.7425L196.109 98.013C195.841 98.3872 195.569 98.7569 195.292 99.1176C194.845 99.6858 194.398 100.227 193.951 100.768C193.669 101.111 193.379 101.444 193.084 101.773C192.673 102.224 192.257 102.675 191.833 103.126L191.457 103.509C189.647 105.37 187.677 107.066 185.572 108.577C185.125 108.911 184.656 109.217 184.209 109.506C180.044 112.184 176.549 113.113 175.123 112.058C173.957 111.201 174.037 108.938 175.284 105.646C175.436 105.241 175.606 104.821 175.794 104.388C176.205 103.446 176.688 102.432 177.264 101.354C179.69 96.8279 182.498 92.521 185.657 88.4813C186.252 87.7209 186.848 86.9694 187.444 86.2269C190.34 82.6875 193.348 79.4367 196.306 76.4563C198.371 77.6421 200.292 78.8009 202.053 79.9416L202.674 80.3474C202.674 80.618 202.665 80.8885 202.647 81.159C202.366 86.3938 200.35 91.5203 197.405 96.1103Z" fill="black"/>
<path d="M280.281 125.955L270.695 111.229L257.231 120.152L249.316 125.395L263.255 146.812L284.629 132.65L280.281 125.955ZM251.171 125.783L258.008 121.252L270.293 113.104L279.173 126.744L282.748 132.253L263.612 144.932L251.171 125.783Z" fill="white"/>
<rect x="267.006" y="131.698" width="18.8384" height="18.8384" transform="rotate(54.3535 267.006 131.698)" stroke="#FFCB65"/>
</svg>
