<svg width="93" height="93" viewBox="0 0 93 93" fill="none" xmlns="http://www.w3.org/2000/svg">
<path d="M10.8358 93.0001H7.19474C3.86077 93.0001 1.18481 90.3615 1.18481 87.0741V36.2056C1.18481 32.9614 3.86077 30.2795 7.19474 30.2795H10.8358C14.1698 30.2795 16.8457 32.9614 16.8457 36.2056V87.0308C16.8457 90.3615 14.1698 93.0001 10.8358 93.0001Z" fill="white"/>
<path d="M35.8409 93.0001H32.1999C28.8659 93.0001 26.1899 90.3615 26.1899 87.074V39.2334C26.1899 35.9892 28.8659 33.3074 32.1999 33.3074H35.8409C39.1749 33.3074 41.8508 35.946 41.8508 39.2334V87.0308C41.8508 90.3615 39.1749 93.0001 35.8409 93.0001Z" fill="white"/>
<path d="M60.8465 93.0001H57.2055C53.8715 93.0001 51.1956 90.3615 51.1956 87.0741V36.2056C51.1956 32.9181 53.8715 30.2795 57.2055 30.2795H60.8465C64.1805 30.2795 66.8564 32.9181 66.8564 36.2056V87.0308C66.8564 90.3615 64.1805 93.0001 60.8465 93.0001Z" fill="white"/>
<path d="M85.8495 93.0001H82.2084C78.8744 93.0001 76.1985 90.3615 76.1985 87.074V39.2334C76.1985 35.946 78.8744 33.3074 82.2084 33.3074H85.8495C89.1834 33.3074 91.8594 35.946 91.8594 39.2334V87.0308C91.8594 90.3615 89.1834 93.0001 85.8495 93.0001Z" fill="white"/>
<path d="M93.0003 12.9767L81.6384 0V9.08367H3.72878C1.66699 9.08367 0 10.8139 0 12.9767C0 15.1395 1.66699 16.8697 3.72878 16.8697H81.6384V26.2561L93.0003 12.9767Z" fill="#FFCB65"/>
</svg>
