<svg width="87" height="93" viewBox="0 0 87 93" fill="none" xmlns="http://www.w3.org/2000/svg">
<mask id="path-1-inside-1_1439_48602" fill="white">
<path d="M86.0002 49.9998C86.0002 73.7481 66.7484 92.9999 43.0001 92.9999C19.2518 92.9999 0 73.7481 0 49.9998C0 26.2516 19.2518 6.99976 43.0001 6.99976C66.7484 6.99976 86.0002 26.2516 86.0002 49.9998ZM9.75928 49.9998C9.75928 68.3582 24.6417 83.2407 43.0001 83.2407C61.3585 83.2407 76.2409 68.3582 76.2409 49.9998C76.2409 31.6415 61.3585 16.759 43.0001 16.759C24.6417 16.759 9.75928 31.6415 9.75928 49.9998Z"/>
</mask>
<path d="M86.0002 49.9998C86.0002 73.7481 66.7484 92.9999 43.0001 92.9999C19.2518 92.9999 0 73.7481 0 49.9998C0 26.2516 19.2518 6.99976 43.0001 6.99976C66.7484 6.99976 86.0002 26.2516 86.0002 49.9998ZM9.75928 49.9998C9.75928 68.3582 24.6417 83.2407 43.0001 83.2407C61.3585 83.2407 76.2409 68.3582 76.2409 49.9998C76.2409 31.6415 61.3585 16.759 43.0001 16.759C24.6417 16.759 9.75928 31.6415 9.75928 49.9998Z" stroke="white" stroke-width="20" mask="url(#path-1-inside-1_1439_48602)"/>
<rect x="36.0005" width="14" height="12" rx="4" fill="white"/>
<rect x="78.7231" y="14.0002" width="14" height="12" rx="4" transform="rotate(54.1216 78.7231 14.0002)" fill="white"/>
<mask id="path-4-inside-2_1439_48602" fill="white">
<path d="M12.5944 19.5944C5.55991 26.6289 1.18216 35.8849 0.207057 45.7853C-0.768045 55.6856 1.71984 65.6178 7.24681 73.8895C12.7738 82.1612 20.9979 88.2606 30.5178 91.1484C40.0377 94.0363 50.2644 93.5339 59.4554 89.7268C68.6464 85.9198 76.233 79.0437 80.9226 70.2701C85.6122 61.4965 87.1146 51.3682 85.1738 41.6111C83.233 31.854 77.969 23.0717 70.2789 16.7606C62.5888 10.4494 52.9483 7 43 7V16.7593C50.6904 16.7593 58.1429 19.4258 64.0877 24.3046C70.0325 29.1833 74.1017 35.9724 75.602 43.5151C77.1024 51.0577 75.941 58.8872 72.3157 65.6696C68.6905 72.4519 62.8257 77.7674 55.7207 80.7104C48.6157 83.6534 40.71 84.0418 33.3507 81.8094C25.9914 79.577 19.6339 74.8619 15.3613 68.4676C11.0888 62.0732 9.16553 54.3952 9.91932 46.7418C10.6731 39.0885 14.0573 31.9332 19.4952 26.4952L12.5944 19.5944Z"/>
</mask>
<path d="M12.5944 19.5944C5.55991 26.6289 1.18216 35.8849 0.207057 45.7853C-0.768045 55.6856 1.71984 65.6178 7.24681 73.8895C12.7738 82.1612 20.9979 88.2606 30.5178 91.1484C40.0377 94.0363 50.2644 93.5339 59.4554 89.7268C68.6464 85.9198 76.233 79.0437 80.9226 70.2701C85.6122 61.4965 87.1146 51.3682 85.1738 41.6111C83.233 31.854 77.969 23.0717 70.2789 16.7606C62.5888 10.4494 52.9483 7 43 7V16.7593C50.6904 16.7593 58.1429 19.4258 64.0877 24.3046C70.0325 29.1833 74.1017 35.9724 75.602 43.5151C77.1024 51.0577 75.941 58.8872 72.3157 65.6696C68.6905 72.4519 62.8257 77.7674 55.7207 80.7104C48.6157 83.6534 40.71 84.0418 33.3507 81.8094C25.9914 79.577 19.6339 74.8619 15.3613 68.4676C11.0888 62.0732 9.16553 54.3952 9.91932 46.7418C10.6731 39.0885 14.0573 31.9332 19.4952 26.4952L12.5944 19.5944Z" stroke="#FFCB65" stroke-width="20" mask="url(#path-4-inside-2_1439_48602)"/>
</svg>
