<svg width="107" height="102" viewBox="0 0 107 102" fill="none" xmlns="http://www.w3.org/2000/svg">
<g clip-path="url(#clip0_266_29533)">
<path d="M33.7503 63.8041L49.5756 58.5825L55.6398 65.8237L62.9506 62.595L79.5088 70.8527L97.549 90.95L7.84558 91.485L33.7503 63.8041Z" fill="#FFCB65"/>
<path d="M81.7773 7.76824L55.383 0.398616C55.0122 0.245312 54.6242 0.137526 54.2274 0.0776172L53.9894 0.0107422V0.0401674C53.8117 0.0209592 53.6331 0.011137 53.4544 0.0107422C52.1419 0.0107422 50.8831 0.532125 49.9551 1.4602C49.027 2.38827 48.5056 3.647 48.5056 4.95949V33.8361C48.5056 35.1486 49.027 36.4073 49.9551 37.3354C50.8831 38.2635 52.1419 38.7849 53.4544 38.7849C54.7669 38.7849 56.0256 38.2635 56.9537 37.3354C57.8817 36.4073 58.4031 35.1486 58.4031 33.8361V20.9694L81.8816 13.4499C84.693 12.5538 84.6101 8.56004 81.7773 7.76824Z" fill="#FFCB65"/>
<path d="M14.3724 70.2788H13.652V67.9443H14.4043C14.6308 67.9443 14.8246 67.991 14.9857 68.0845C15.1468 68.1772 15.2703 68.3106 15.3561 68.4846C15.442 68.6578 15.4849 68.8653 15.4849 69.107C15.4849 69.3502 15.4416 69.5595 15.355 69.7351C15.2684 69.9099 15.1422 70.0444 14.9765 70.1386C14.8109 70.2321 14.6095 70.2788 14.3724 70.2788ZM13.9347 70.028H14.3541C14.5472 70.028 14.7071 69.9908 14.8341 69.9163C14.961 69.8418 15.0556 69.7358 15.1179 69.5983C15.1802 69.4607 15.2114 69.297 15.2114 69.107C15.2114 68.9185 15.1806 68.7563 15.119 68.6202C15.0575 68.4834 14.9655 68.3786 14.8432 68.3056C14.7208 68.2319 14.5685 68.195 14.3861 68.195H13.9347V70.028ZM17.8377 68.6738H17.555C17.5383 68.5925 17.5091 68.5211 17.4673 68.4595C17.4262 68.3979 17.3761 68.3463 17.3168 68.3045C17.2583 68.2619 17.1933 68.23 17.1219 68.2087C17.0504 68.1874 16.976 68.1768 16.8984 68.1768C16.7571 68.1768 16.629 68.2125 16.5143 68.284C16.4003 68.3554 16.3095 68.4606 16.2418 68.5997C16.175 68.7388 16.1415 68.9094 16.1415 69.1115C16.1415 69.3137 16.175 69.4843 16.2418 69.6234C16.3095 69.7624 16.4003 69.8677 16.5143 69.9391C16.629 70.0105 16.7571 70.0463 16.8984 70.0463C16.976 70.0463 17.0504 70.0356 17.1219 70.0143C17.1933 69.9931 17.2583 69.9615 17.3168 69.9197C17.3761 69.8772 17.4262 69.8251 17.4673 69.7636C17.5091 69.7013 17.5383 69.6298 17.555 69.5493H17.8377C17.8165 69.6686 17.7777 69.7753 17.7215 69.8696C17.6652 69.9638 17.5953 70.044 17.5117 70.1101C17.4281 70.1755 17.3343 70.2252 17.2302 70.2594C17.1268 70.2936 17.0162 70.3107 16.8984 70.3107C16.6993 70.3107 16.5223 70.2621 16.3672 70.1648C16.2122 70.0675 16.0902 69.9292 16.0013 69.7499C15.9124 69.5705 15.868 69.3578 15.868 69.1115C15.868 68.8653 15.9124 68.6525 16.0013 68.4732C16.0902 68.2938 16.2122 68.1555 16.3672 68.0583C16.5223 67.961 16.6993 67.9123 16.8984 67.9123C17.0162 67.9123 17.1268 67.9294 17.2302 67.9636C17.3343 67.9978 17.4281 68.048 17.5117 68.1141C17.5953 68.1795 17.6652 68.2593 17.7215 68.3535C17.7777 68.447 17.8165 68.5537 17.8377 68.6738ZM20.1731 68.6738H19.8904C19.8737 68.5925 19.8445 68.5211 19.8027 68.4595C19.7616 68.3979 19.7115 68.3463 19.6522 68.3045C19.5937 68.2619 19.5287 68.23 19.4573 68.2087C19.3858 68.1874 19.3114 68.1768 19.2338 68.1768C19.0925 68.1768 18.9644 68.2125 18.8497 68.284C18.7357 68.3554 18.6449 68.4606 18.5772 68.5997C18.5104 68.7388 18.4769 68.9094 18.4769 69.1115C18.4769 69.3137 18.5104 69.4843 18.5772 69.6234C18.6449 69.7624 18.7357 69.8677 18.8497 69.9391C18.9644 70.0105 19.0925 70.0463 19.2338 70.0463C19.3114 70.0463 19.3858 70.0356 19.4573 70.0143C19.5287 69.9931 19.5937 69.9615 19.6522 69.9197C19.7115 69.8772 19.7616 69.8251 19.8027 69.7636C19.8445 69.7013 19.8737 69.6298 19.8904 69.5493H20.1731C20.1519 69.6686 20.1131 69.7753 20.0569 69.8696C20.0006 69.9638 19.9307 70.044 19.8471 70.1101C19.7635 70.1755 19.6697 70.2252 19.5656 70.2594C19.4622 70.2936 19.3516 70.3107 19.2338 70.3107C19.0347 70.3107 18.8577 70.2621 18.7026 70.1648C18.5476 70.0675 18.4256 69.9292 18.3367 69.7499C18.2478 69.5705 18.2034 69.3578 18.2034 69.1115C18.2034 68.8653 18.2478 68.6525 18.3367 68.4732C18.4256 68.2938 18.5476 68.1555 18.7026 68.0583C18.8577 67.961 19.0347 67.9123 19.2338 67.9123C19.3516 67.9123 19.4622 67.9294 19.5656 67.9636C19.6697 67.9978 19.7635 68.048 19.8471 68.1141C19.9307 68.1795 20.0006 68.2593 20.0569 68.3535C20.1131 68.447 20.1519 68.5537 20.1731 68.6738ZM20.6299 70.2788V67.9443H21.4461C21.6088 67.9443 21.7429 67.9724 21.8485 68.0286C21.9542 68.0841 22.0328 68.1589 22.0845 68.2532C22.1362 68.3467 22.162 68.4504 22.162 68.5644C22.162 68.6647 22.1441 68.7475 22.1084 68.8129C22.0735 68.8782 22.0271 68.9299 21.9693 68.9679C21.9124 69.0059 21.8504 69.034 21.7835 69.0523V69.0751C21.855 69.0796 21.9268 69.1047 21.999 69.1503C22.0712 69.1959 22.1316 69.2612 22.1802 69.3464C22.2289 69.4315 22.2532 69.5356 22.2532 69.6587C22.2532 69.7757 22.2266 69.881 22.1734 69.9745C22.1202 70.0679 22.0362 70.142 21.9215 70.1967C21.8067 70.2515 21.6574 70.2788 21.4735 70.2788H20.6299ZM20.9126 70.028H21.4735C21.6582 70.028 21.7892 69.9923 21.8668 69.9209C21.945 69.8487 21.9842 69.7613 21.9842 69.6587C21.9842 69.5797 21.964 69.5067 21.9238 69.4398C21.8835 69.3722 21.8261 69.3182 21.7516 69.278C21.6772 69.2369 21.589 69.2164 21.4872 69.2164H20.9126V70.028ZM20.9126 68.9702H21.437C21.5221 68.9702 21.5989 68.9535 21.6673 68.92C21.7364 68.8866 21.7911 68.8395 21.8314 68.7787C21.8725 68.7179 21.893 68.6465 21.893 68.5644C21.893 68.4618 21.8573 68.3748 21.7858 68.3033C21.7144 68.2311 21.6012 68.195 21.4461 68.195H20.9126V68.9702ZM23.4199 67.9123C23.5156 67.9131 23.6114 67.9313 23.7072 67.9671C23.8029 68.0028 23.8903 68.0621 23.9693 68.1449C24.0484 68.227 24.1118 68.3391 24.1597 68.4812C24.2076 68.6233 24.2315 68.8015 24.2315 69.0158C24.2315 69.2232 24.2118 69.4075 24.1722 69.5686C24.1335 69.729 24.0772 69.8643 24.0035 69.9745C23.9306 70.0846 23.8417 70.1682 23.7368 70.2252C23.6327 70.2822 23.5149 70.3107 23.3834 70.3107C23.2527 70.3107 23.1361 70.2849 23.0335 70.2332C22.9316 70.1808 22.848 70.1082 22.7827 70.0155C22.7181 69.922 22.6767 69.8137 22.6584 69.6906H22.9366C22.9616 69.7978 23.0114 69.8863 23.0859 69.9562C23.1611 70.0254 23.2603 70.0599 23.3834 70.0599C23.5635 70.0599 23.7056 69.9813 23.8097 69.824C23.9146 69.6667 23.9671 69.4444 23.9671 69.1571H23.9488C23.9063 69.221 23.8557 69.2761 23.7972 69.3224C23.7387 69.3688 23.6737 69.4045 23.6023 69.4296C23.5308 69.4547 23.4548 69.4672 23.3743 69.4672C23.2405 69.4672 23.1178 69.4341 23.0061 69.368C22.8952 69.3011 22.8062 69.2096 22.7394 69.0933C22.6732 68.9763 22.6402 68.8425 22.6402 68.692C22.6402 68.5492 22.6721 68.4185 22.7359 68.2999C22.8005 68.1806 22.891 68.0856 23.0072 68.0149C23.1243 67.9443 23.2618 67.9101 23.4199 67.9123ZM23.4199 68.1631C23.3241 68.1631 23.2379 68.1871 23.1611 68.2349C23.0851 68.2821 23.0247 68.3459 22.9799 68.4264C22.9358 68.5062 22.9138 68.5948 22.9138 68.692C22.9138 68.7893 22.935 68.8779 22.9776 68.9576C23.0209 69.0367 23.0798 69.0998 23.1543 69.1469C23.2295 69.1932 23.315 69.2164 23.4108 69.2164C23.483 69.2164 23.5502 69.2023 23.6125 69.1742C23.6749 69.1454 23.7292 69.1062 23.7755 69.0568C23.8227 69.0067 23.8595 68.95 23.8861 68.887C23.9127 68.8231 23.926 68.7566 23.926 68.6875C23.926 68.5963 23.904 68.5108 23.8599 68.431C23.8166 68.3512 23.7565 68.2866 23.6798 68.2372C23.6038 68.1878 23.5172 68.1631 23.4199 68.1631ZM25.4412 70.3107C25.2695 70.3107 25.1232 70.264 25.0024 70.1705C24.8815 70.0763 24.7892 69.9399 24.7254 69.7613C24.6615 69.5819 24.6296 69.3654 24.6296 69.1115C24.6296 68.8592 24.6615 68.6438 24.7254 68.4652C24.79 68.2859 24.8827 68.1491 25.0035 68.0548C25.1251 67.9598 25.271 67.9123 25.4412 67.9123C25.6115 67.9123 25.757 67.9598 25.8778 68.0548C25.9994 68.1491 26.0921 68.2859 26.156 68.4652C26.2206 68.6438 26.2529 68.8592 26.2529 69.1115C26.2529 69.3654 26.2209 69.5819 26.1571 69.7613C26.0933 69.9399 26.0009 70.0763 25.8801 70.1705C25.7593 70.264 25.613 70.3107 25.4412 70.3107ZM25.4412 70.0599C25.6115 70.0599 25.7437 69.9779 25.8379 69.8137C25.9322 69.6496 25.9793 69.4155 25.9793 69.1115C25.9793 68.9094 25.9576 68.7373 25.9143 68.5952C25.8718 68.453 25.8102 68.3448 25.7296 68.2703C25.6498 68.1958 25.5537 68.1586 25.4412 68.1586C25.2725 68.1586 25.1407 68.2418 25.0457 68.4082C24.9507 68.5739 24.9032 68.8083 24.9032 69.1115C24.9032 69.3137 24.9245 69.4854 24.967 69.6268C25.0096 69.7681 25.0708 69.8757 25.1506 69.9494C25.2311 70.0231 25.328 70.0599 25.4412 70.0599Z" fill="#1D1D1B"/>
<path d="M53.4996 41.5588L96.6901 90.2064C96.7608 90.3152 96.8079 90.4375 96.8287 90.5655C96.8494 90.6936 96.8432 90.8245 96.8105 90.95H10.1887C10.156 90.8245 10.1498 90.6936 10.1705 90.5655C10.1912 90.4375 10.2384 90.3152 10.309 90.2064L53.4996 41.5588ZM53.4996 30.5325C52.2634 30.5454 51.0443 30.8231 49.9244 31.3468C48.8045 31.8705 47.8098 32.6281 47.0074 33.5686L2.70669 83.4574C-3.07666 89.9737 1.01876 101.112 9.20159 101.112H97.8003C105.983 101.112 110.079 89.971 104.295 83.4574L59.9918 33.5686C59.1893 32.6281 58.1947 31.8705 57.0748 31.3468C55.9549 30.8231 54.7358 30.5454 53.4996 30.5325Z" fill="white"/>
</g>
<defs>
<clipPath id="clip0_266_29533">
<rect width="107" height="101.115" fill="white"/>
</clipPath>
</defs>
</svg>
