<svg width="144" height="98" viewBox="0 0 144 98" fill="none" xmlns="http://www.w3.org/2000/svg">
<path d="M132.9 82.4599C127.35 82.4599 122.7 77.8223 122.7 72.1375C122.7 66.6023 127.35 61.8151 132.9 61.8151C138.6 61.8151 143.1 66.4527 143.1 72.1375C143.25 77.9719 138.6 82.4599 132.9 82.4599ZM82.05 10.5023C82.05 4.81753 77.55 0.179932 71.85 0.179932C66.3 0.179932 61.65 4.96713 61.65 10.5023C61.65 16.1871 66.3 20.8247 71.85 20.8247C77.55 20.8247 82.2 16.3367 82.05 10.5023ZM21.3 72.1375C21.3 66.4527 16.8 61.8151 11.1 61.8151C5.55002 61.8151 0.900024 66.6023 0.900024 72.1375C0.900024 77.8223 5.55002 82.4599 11.1 82.4599C16.8 82.4599 21.45 77.9719 21.3 72.1375ZM39.6 28.3047C39.6 22.6199 35.1 17.9823 29.4 17.9823C23.85 17.9823 19.2 22.7695 19.2 28.3047C19.2 33.9895 23.85 38.6271 29.4 38.6271C35.1 38.6271 39.75 34.1391 39.6 28.3047ZM114.45 38.6271C120 38.6271 124.65 33.9895 124.65 28.3047C124.65 22.7695 120 17.9823 114.45 17.9823C108.75 17.9823 104.25 22.6199 104.25 28.3047C104.1 34.1391 108.75 38.6271 114.45 38.6271ZM118.5 72.1375C118.5 72.7359 118.05 73.3343 117.3 73.3343H97.2C96.6 86.6487 85.5 97.4199 72 97.4199C58.5 97.4199 47.4 86.7983 46.8 73.3343H26.85C26.25 73.3343 25.65 72.8855 25.65 72.1375C25.65 71.5391 26.1 70.9407 26.85 70.9407H46.8C47.1 64.5079 49.8 58.6735 54.15 54.3351L39.9 40.1231C39.45 39.6743 39.45 38.9263 39.9 38.4775C40.35 38.0287 41.1 38.0287 41.55 38.4775L55.8 52.6895C60 49.2487 65.25 47.0047 70.95 46.8551V26.8087C70.95 26.2103 71.4 25.6119 72.15 25.6119C72.75 25.6119 73.35 26.0607 73.35 26.8087V47.0047C79.05 47.3039 84.3 49.3983 88.5 52.8391L102.75 38.6271C103.2 38.1783 103.95 38.1783 104.4 38.6271C104.85 39.0759 104.85 39.8239 104.4 40.2727L90.15 54.4847C94.5 58.8231 97.2 64.6575 97.5 71.0903H117.75C118.05 71.0903 118.5 71.5391 118.5 72.1375ZM94.95 72.1375C94.95 59.4215 84.6 49.2487 72 49.2487C59.25 49.2487 49.05 59.5711 49.05 72.1375C49.05 84.8535 59.4 95.0263 72 95.0263C84.6 95.1759 94.95 84.8535 94.95 72.1375Z" fill="#FFCB65"/>
</svg>
