<svg width="24" height="24" viewBox="0 0 24 24" fill="none" xmlns="http://www.w3.org/2000/svg">
<path fill-rule="evenodd" clip-rule="evenodd" d="M6.55207 0.333801H17.4476C21.4154 0.333801 23.6554 2.5843 23.6671 6.55213V17.4488C23.6671 21.4155 21.4154 23.6671 17.4476 23.6671H6.55207C2.58424 23.6671 0.33374 21.4155 0.33374 17.4488V6.55213C0.33374 2.5843 2.58424 0.333801 6.55207 0.333801ZM12.0576 18.8371C12.5604 18.8371 12.9792 18.4638 13.0259 17.9621V6.0738C13.0726 5.71213 12.8987 5.3493 12.5837 5.15213C12.2559 4.9538 11.8592 4.9538 11.5454 5.15213C11.2292 5.3493 11.0554 5.71213 11.0892 6.0738V17.9621C11.1487 18.4638 11.5676 18.8371 12.0576 18.8371ZM17.4254 18.8371C17.9154 18.8371 18.3342 18.4638 18.3937 17.9621V14.1355C18.4276 13.761 18.2537 13.4121 17.9376 13.2138C17.6237 13.0155 17.2271 13.0155 16.9004 13.2138C16.5842 13.4121 16.4104 13.761 16.4571 14.1355V17.9621C16.5037 18.4638 16.9226 18.8371 17.4254 18.8371ZM7.58924 17.9621C7.54257 18.4638 7.12374 18.8371 6.62091 18.8371C6.11924 18.8371 5.69924 18.4638 5.65374 17.9621V9.90047C5.61874 9.53763 5.79257 9.17713 6.10874 8.9788C6.42257 8.78047 6.82041 8.78047 7.13541 8.9788C7.44924 9.17713 7.62541 9.53763 7.58924 9.90047V17.9621Z" fill="white"/>
</svg>
