<svg width="28" height="28" viewBox="0 0 28 28" fill="none" xmlns="http://www.w3.org/2000/svg">
<path fill-rule="evenodd" clip-rule="evenodd" d="M8.55207 2.3338H19.4476C23.4154 2.3338 25.6554 4.5843 25.6671 8.55213V19.4488C25.6671 23.4155 23.4154 25.6671 19.4476 25.6671H8.55207C4.58424 25.6671 2.33374 23.4155 2.33374 19.4488V8.55213C2.33374 4.5843 4.58424 2.3338 8.55207 2.3338ZM14.0576 20.8371C14.5604 20.8371 14.9792 20.4638 15.0259 19.9621V8.0738C15.0726 7.71213 14.8987 7.3493 14.5837 7.15213C14.2559 6.9538 13.8592 6.9538 13.5454 7.15213C13.2292 7.3493 13.0554 7.71213 13.0892 8.0738V19.9621C13.1487 20.4638 13.5676 20.8371 14.0576 20.8371ZM19.4254 20.8371C19.9154 20.8371 20.3342 20.4638 20.3937 19.9621V16.1355C20.4276 15.761 20.2537 15.4121 19.9376 15.2138C19.6237 15.0155 19.2271 15.0155 18.9004 15.2138C18.5842 15.4121 18.4104 15.761 18.4571 16.1355V19.9621C18.5037 20.4638 18.9226 20.8371 19.4254 20.8371ZM9.58924 19.9621C9.54257 20.4638 9.12374 20.8371 8.62091 20.8371C8.11924 20.8371 7.69924 20.4638 7.65374 19.9621V11.9005C7.61874 11.5376 7.79257 11.1771 8.10874 10.9788C8.42257 10.7805 8.82041 10.7805 9.13541 10.9788C9.44924 11.1771 9.62541 11.5376 9.58924 11.9005V19.9621Z" fill="white"/>
</svg>
