<svg width="96" height="236" viewBox="0 0 96 236" fill="none" xmlns="http://www.w3.org/2000/svg">
<path d="M39.9432 10.6869L27.7232 37.6321L37.8947 47.7653L36.9999 118.001C36.9999 118.001 35.035 124.466 30.177 124.459C16.8387 124.442 15.5479 98.8914 15.5479 98.8914C15.5479 98.8914 5.75744 109.33 5.77572 123.389C5.79209 135.972 13.1546 143.261 13.1702 155.261C13.1895 170.08 0.945956 178.942 0.969326 196.913C0.975866 201.942 2.12719 212.757 8.35104 218.981C26.8949 237.525 62.381 243.486 85.5594 220.307C111.467 194.399 77.5988 170.858 77.583 160.63C77.5635 145.605 96.29 135.573 79.2996 118.582C79.2996 118.582 75.279 124.624 68.6496 127.018L65.5189 156.521L57.2656 156.271L55.5563 45.6053L59.5895 40.1245L59.5385 0.908402L39.9432 10.6869ZM38.0239 176.558L55.0613 176.585L55.0705 183.67L38.0331 183.653L38.0239 176.558ZM38.0509 197.353L55.0883 197.371L55.0956 206.653L38.063 206.631L38.0509 197.353Z" fill="white"/>
</svg>
