<svg width="123" height="123" viewBox="0 0 123 123" fill="none" xmlns="http://www.w3.org/2000/svg">
<mask id="path-1-inside-1_886_1762" fill="white">
<path d="M123 61.5C123 95.4655 95.4655 123 61.5 123C27.5345 123 0 95.4655 0 61.5C0 27.5345 27.5345 0 61.5 0C95.4655 0 123 27.5345 123 61.5ZM13.958 61.5C13.958 87.7567 35.2433 109.042 61.5 109.042C87.7567 109.042 109.042 87.7567 109.042 61.5C109.042 35.2433 87.7567 13.958 61.5 13.958C35.2433 13.958 13.958 35.2433 13.958 61.5Z"/>
</mask>
<path d="M123 61.5C123 95.4655 95.4655 123 61.5 123C27.5345 123 0 95.4655 0 61.5C0 27.5345 27.5345 0 61.5 0C95.4655 0 123 27.5345 123 61.5ZM13.958 61.5C13.958 87.7567 35.2433 109.042 61.5 109.042C87.7567 109.042 109.042 87.7567 109.042 61.5C109.042 35.2433 87.7567 13.958 61.5 13.958C35.2433 13.958 13.958 35.2433 13.958 61.5Z" stroke="white" stroke-opacity="0.5" stroke-width="20" mask="url(#path-1-inside-1_886_1762)"/>
</svg>
