<svg width="42" height="42" viewBox="0 0 42 42" fill="none" xmlns="http://www.w3.org/2000/svg">
<g opacity="0.9">
<path d="M20.8729 16.7285C21.6653 16.7272 22.4403 16.9609 23.0999 17.4001C23.7594 17.8394 24.2738 18.4644 24.578 19.1961C24.8822 19.9278 24.9625 20.7333 24.8088 21.5107C24.655 22.2881 24.2741 23.0023 23.7143 23.5632C23.1544 24.124 22.4408 24.5061 21.6637 24.6612C20.8866 24.8163 20.081 24.7374 19.3488 24.4345C18.6165 24.1315 17.9906 23.6182 17.5502 22.9594C17.1098 22.3006 16.8748 21.526 16.8747 20.7336C16.8747 19.6726 17.2958 18.6549 18.0454 17.904C18.795 17.1531 19.8119 16.7304 20.8729 16.7285ZM20.8729 14.6498C19.6696 14.6498 18.4934 15.0066 17.4929 15.6751C16.4924 16.3436 15.7126 17.2938 15.2522 18.4054C14.7917 19.5171 14.6712 20.7404 14.906 21.9205C15.1407 23.1006 15.7201 24.1847 16.571 25.0355C17.4218 25.8864 18.5058 26.4658 19.686 26.7005C20.8661 26.9353 22.0894 26.8148 23.2011 26.3543C24.3127 25.8939 25.2629 25.1141 25.9314 24.1136C26.5999 23.1131 26.9567 21.9369 26.9567 20.7336C26.9567 19.9347 26.7994 19.1436 26.4936 18.4054C26.1879 17.6673 25.7397 16.9966 25.1748 16.4317C24.6099 15.8668 23.9392 15.4186 23.2011 15.1129C22.4629 14.8071 21.6718 14.6498 20.8729 14.6498Z" fill="white"/>
<path d="M8.97347 13.6658C10.6775 10.823 13.3439 8.68505 16.4891 7.63968C19.6343 6.59432 23.05 6.71079 26.1167 7.96798C29.1834 9.22516 31.698 11.5398 33.2043 14.4921C34.7107 17.4443 35.1092 20.8387 34.3274 24.0596L36.2745 24.8634C37.2879 21.1175 36.8998 17.1305 35.183 13.6504C33.4661 10.1703 30.5385 7.43612 26.9493 5.96082C23.3601 4.48552 19.356 4.37045 15.688 5.63719C12.02 6.90394 8.94023 9.46546 7.02637 12.8412L8.97347 13.6658Z" fill="white"/>
<path d="M32.7699 27.8228C31.0612 30.6577 28.3941 32.7874 25.2514 33.8265C22.1086 34.8656 18.6977 34.7455 15.6358 33.4879C12.574 32.2303 10.0633 29.9184 8.55817 26.9703C7.05303 24.0222 6.6528 20.6327 7.4299 17.4152L5.46894 16.6114C4.45234 20.3591 4.83902 24.3491 6.55636 27.8319C8.27369 31.3146 11.2035 34.0506 14.7955 35.5259C18.3875 37.0011 22.3946 37.1142 26.0641 35.8438C29.7336 34.5734 32.813 32.007 34.724 28.6266L32.7699 27.8228Z" fill="white"/>
<path d="M10.7267 14.5114L7.26208 14.9133C7.16513 14.9249 7.06685 14.9172 6.97288 14.8907C6.87891 14.8642 6.7911 14.8194 6.71448 14.7589C6.63786 14.6984 6.57396 14.6233 6.52643 14.538C6.47889 14.4528 6.44868 14.3589 6.4375 14.2619L6.03561 10.7973C6.012 10.6492 6.03388 10.4974 6.09835 10.3619C6.16283 10.2265 6.26688 10.1138 6.39675 10.0387C6.52662 9.96366 6.67621 9.92975 6.82576 9.94148C6.97531 9.95321 7.11778 10.01 7.23436 10.1044L11.1078 13.1671C11.2289 13.2578 11.3197 13.3832 11.3681 13.5265C11.4166 13.6699 11.4204 13.8246 11.3791 13.9702C11.3378 14.1158 11.2534 14.2455 11.1369 14.3421C11.0204 14.4387 10.8774 14.4977 10.7267 14.5114Z" fill="white"/>
<path d="M31.1001 27.3771L34.4538 26.4486C34.548 26.4223 34.6465 26.4149 34.7435 26.4269C34.8405 26.4388 34.9343 26.4698 35.0193 26.5181C35.1043 26.5664 35.1789 26.6311 35.2388 26.7083C35.2988 26.7856 35.3428 26.8739 35.3685 26.9683L36.2901 30.3289C36.33 30.4705 36.3269 30.6209 36.2812 30.7607C36.2355 30.9006 36.1492 31.0237 36.0332 31.1143C35.9173 31.205 35.7771 31.2591 35.6303 31.2698C35.4835 31.2804 35.3369 31.2472 35.2091 31.1743L30.9199 28.7352C30.793 28.6618 30.6907 28.5523 30.626 28.4208C30.5612 28.2892 30.537 28.1413 30.5562 27.996C30.5755 27.8506 30.6375 27.7142 30.7343 27.604C30.8311 27.4939 30.9584 27.4149 31.1001 27.3771Z" fill="white"/>
</g>
</svg>
