<svg width="79" height="199" viewBox="0 0 79 199" fill="none" xmlns="http://www.w3.org/2000/svg">
<path d="M34.7138 0.764682L34.3175 12.8497L25.8005 12.8272L25.8177 19.3454L34.1063 19.3673L33.8951 25.885L25.8349 25.8637L25.8521 32.3819L33.6838 32.4026L33.5138 37.5131L44.2865 37.5457L43.8478 25.9113L51.908 25.9326L51.8907 19.4143L43.6022 19.3924L43.3525 12.8694L51.8735 12.896L51.8563 6.37778L43.1068 6.35058L42.8963 0.786296L34.7138 0.764682ZM33.2348 46.1843L32.4236 71.068C22.4018 72.5689 14.9187 77.4173 11.6244 83.2541C4.85201 95.2573 6.71669 113.862 6.71669 113.862C6.71669 113.862 16.2862 113.205 16.3273 127.948C16.3674 143.143 5.37056 143.174 5.37056 143.174C5.37056 143.174 0.0948603 151.843 0.129449 164.938C0.181327 183.786 12.311 198.248 35.9209 198.313L30.969 162.76L47.4971 162.803L42.7329 198.331C66.3408 198.393 78.3962 183.993 78.3485 165.145C78.314 152.05 72.9924 143.353 72.9924 143.353C72.9924 143.353 61.9952 143.264 61.9551 128.068C61.9161 113.324 71.4914 114.033 71.4914 114.033C71.4914 114.033 73.2578 95.438 66.4219 83.3989C64.2565 79.5838 60.2868 76.1953 55.0407 73.8403L53.1407 97.3017L46.571 97.8839L44.6153 46.2144L33.2348 46.1843Z" fill="white"/>
</svg>
