<svg width="160" height="160" viewBox="0 0 160 160" fill="none" xmlns="http://www.w3.org/2000/svg">
<rect width="160" height="160" rx="28" fill="white"/>
<path d="M77.1468 37.7811C78.0449 35.0172 81.9551 35.0172 82.8532 37.7812L91.8992 65.6221C92.3009 66.8582 93.4527 67.695 94.7524 67.695H124.026C126.932 67.695 128.141 71.4139 125.789 73.1221L102.107 90.3288C101.055 91.0927 100.615 92.4468 101.017 93.6829L110.063 121.524C110.961 124.288 107.797 126.586 105.446 124.878L81.7634 107.671C80.7119 106.907 79.2881 106.907 78.2366 107.671L54.5537 124.878C52.2026 126.586 49.0391 124.288 49.9372 121.524L58.9833 93.6829C59.3849 92.4468 58.9449 91.0927 57.8935 90.3288L34.2105 73.1221C31.8594 71.4139 33.0677 67.695 35.9739 67.695H65.2476C66.5473 67.695 67.6991 66.8582 68.1008 65.6221L77.1468 37.7811Z" fill="#1D1A22"/>
</svg>
