<svg width="227" height="175" viewBox="0 0 227 175" fill="none" xmlns="http://www.w3.org/2000/svg">
<path d="M35.3579 0.000669798C34.1483 0.021972 32.9643 0.351916 31.9183 0.959146C30.8723 1.56638 29.9992 2.43072 29.3818 3.47003L13.2177 0.240573C12.2983 0.0420706 11.3486 0.0281769 10.4238 0.199698C9.49903 0.371218 8.61762 0.724729 7.83086 1.23967C7.0441 1.7546 6.3677 2.42069 5.841 3.19917C5.31431 3.97765 4.94783 4.85298 4.76289 5.77425C4.57796 6.69552 4.57826 7.64432 4.76377 8.56547C4.94928 9.48662 5.31631 10.3617 5.84349 11.1399C6.37068 11.918 7.0475 12.5837 7.83458 13.0981C8.62166 13.6126 9.50329 13.9655 10.4282 14.1365L28.375 17.7258V33.1719H7.09375C3.17327 33.1719 0 36.3465 0 40.2582V68.6037C0 72.5153 3.17327 75.69 7.09375 75.69H28.375V167.813C28.3617 168.752 28.5354 169.684 28.8859 170.555C29.2364 171.427 29.7568 172.22 30.4169 172.889C31.0769 173.557 31.8634 174.088 32.7307 174.451C33.5979 174.813 34.5286 175 35.4688 175C36.4088 175 37.3396 174.813 38.2068 174.451C39.0741 174.088 39.8606 173.557 40.5206 172.889C41.1807 172.22 41.7011 171.427 42.0516 170.555C42.4021 169.684 42.5758 168.752 42.5625 167.813V75.69H63.8437C67.7642 75.69 70.9375 72.5153 70.9375 68.6037V40.2582C70.9375 36.3465 67.7642 33.1719 63.8437 33.1719H42.5625V20.5585L57.7198 23.585C58.6392 23.7835 59.5889 23.7974 60.5137 23.6258C61.4385 23.4543 62.3199 23.1008 63.1066 22.5859C63.8934 22.0709 64.5698 21.4049 65.0965 20.6264C65.6232 19.8479 65.9897 18.9726 66.1746 18.0513C66.3596 17.13 66.3593 16.1812 66.1737 15.2601C65.9882 14.3389 65.6212 13.4638 65.094 12.6857C64.5668 11.9075 63.89 11.2418 63.1029 10.7274C62.3158 10.213 61.4342 9.86 60.5093 9.68905L42.4794 6.09051C42.2367 4.38391 41.3798 2.82415 40.069 1.70321C38.7581 0.582263 37.0833 -0.0230172 35.3579 0.000669798ZM191.42 4.72491C189.956 4.74962 188.534 5.22677 187.352 6.09084C186.169 6.95491 185.283 8.16351 184.816 9.55065H167.885C166.945 9.53737 166.012 9.71085 165.14 10.061C164.268 10.4112 163.474 10.931 162.804 11.5904C162.135 12.2497 161.603 13.0354 161.24 13.9018C160.877 14.7681 160.691 15.6979 160.691 16.637C160.691 17.5761 160.877 18.5059 161.24 19.3722C161.603 20.2386 162.135 21.0243 162.804 21.6836C163.474 22.343 164.268 22.8628 165.14 23.213C166.012 23.5632 166.945 23.7367 167.885 23.7234H184.438V33.1719H163.156C159.236 33.1719 156.062 36.3465 156.062 40.2582V68.6037C156.062 72.5153 159.236 75.69 163.156 75.69H184.438V167.813C184.424 168.752 184.598 169.684 184.948 170.555C185.299 171.427 185.819 172.22 186.479 172.889C187.139 173.557 187.926 174.088 188.793 174.451C189.66 174.813 190.591 175 191.531 175C192.471 175 193.402 174.813 194.269 174.451C195.137 174.088 195.923 173.557 196.583 172.889C197.243 172.22 197.764 171.427 198.114 170.555C198.465 169.684 198.638 168.752 198.625 167.813V75.69H219.906C223.827 75.69 227 72.5153 227 68.6037V40.2582C227 36.3465 223.827 33.1719 219.906 33.1719H198.625V23.7234H215.177C216.117 23.7367 217.05 23.5632 217.923 23.213C218.795 22.8628 219.589 22.343 220.258 21.6836C220.928 21.0243 221.459 20.2386 221.822 19.3722C222.185 18.5059 222.372 17.5761 222.372 16.637C222.372 15.6979 222.185 14.7681 221.822 13.9018C221.459 13.0354 220.928 12.2497 220.258 11.5904C219.589 10.931 218.795 10.4112 217.923 10.061C217.05 9.71085 216.117 9.53737 215.177 9.55065H198.246C197.767 8.12772 196.848 6.89364 195.621 6.02633C194.394 5.15903 192.923 4.70332 191.42 4.72491ZM113.5 66.2415C84.8176 66.2415 61.4792 89.5557 61.4792 118.208C61.4792 131.501 66.5491 143.601 74.7984 152.8L67.3999 163.882C66.8657 164.656 66.4909 165.528 66.2975 166.448C66.104 167.368 66.0957 168.317 66.273 169.241C66.4503 170.164 66.8097 171.042 67.3303 171.826C67.8508 172.609 68.5221 173.281 69.3051 173.802C70.0881 174.323 70.9671 174.684 71.8909 174.863C72.8147 175.042 73.7649 175.035 74.6862 174.843C75.6075 174.652 76.4814 174.279 77.2571 173.747C78.0327 173.215 78.6947 172.534 79.2043 171.743L85.6792 162.046C93.7357 167.167 103.265 170.175 113.5 170.175C123.735 170.175 133.264 167.167 141.321 162.046L147.796 171.743C148.305 172.534 148.967 173.215 149.743 173.747C150.519 174.279 151.393 174.652 152.314 174.843C153.235 175.035 154.185 175.042 155.109 174.863C156.033 174.684 156.912 174.323 157.695 173.802C158.478 173.281 159.149 172.609 159.67 171.826C160.19 171.042 160.55 170.164 160.727 169.241C160.904 168.317 160.896 167.368 160.703 166.448C160.509 165.528 160.134 164.656 159.6 163.882L152.202 152.8C160.451 143.601 165.521 131.501 165.521 118.208C165.521 89.5557 142.182 66.2415 113.5 66.2415ZM122.958 118.208C128.184 118.208 132.417 122.436 132.417 127.657C132.417 132.872 128.184 137.105 122.958 137.105C117.733 137.105 113.5 132.872 113.5 127.657C113.5 122.436 117.733 118.208 122.958 118.208Z" fill="white"/>
</svg>
