<svg width="16" height="17" viewBox="0 0 16 17" fill="none" xmlns="http://www.w3.org/2000/svg">
<path d="M15.5952 13.706L8.97079 5.81075C8.90002 5.72603 8.8203 5.65018 8.73319 5.58469V3.81684L12.244 2.62684C12.6632 2.48502 12.652 1.85298 12.2284 1.72768L8.28159 0.561384C8.22614 0.537122 8.16812 0.520064 8.10879 0.510583L8.07319 0.5V0.504657C8.04662 0.501617 8.01992 0.500062 7.99319 0.5C7.79728 0.499999 7.60936 0.582221 7.47064 0.728637C7.33192 0.875053 7.25373 1.07371 7.2532 1.28106V5.59316C7.17148 5.65664 7.09639 5.72916 7.0292 5.80949L0.404828 13.706C-0.459968 14.7372 0.152429 16.5 1.37602 16.5H14.6244C15.8476 16.5004 16.46 14.7372 15.5952 13.706ZM11.8892 11.7112L9.41319 10.4044L8.31999 10.9153L7.4132 9.76937L5.04681 10.5945L7.99999 7.07399L11.8896 11.7104L11.8892 11.7112Z" fill="white"/>
</svg>
