<svg width="305" height="305" viewBox="0 0 305 305" fill="none" xmlns="http://www.w3.org/2000/svg">
<g clip-path="url(#clip0_3246_58552)">
<path fill-rule="evenodd" clip-rule="evenodd" d="M133.967 70.0252L132.414 177.975C132.414 179.529 132.931 180.823 133.967 181.859C135.002 182.894 136.426 183.541 137.98 183.541C140.827 183.541 144.451 183.541 147.299 183.541C148.852 183.541 150.147 183.023 151.311 181.859C152.347 180.823 152.994 179.399 152.865 177.975L151.182 69.8958L133.967 70.0252Z" fill="white"/>
<path fill-rule="evenodd" clip-rule="evenodd" d="M132.155 42.3259L131.508 45.044L125.424 46.4678C124 46.8561 123.094 48.28 123.353 49.8332C123.741 51.257 125.165 52.1631 126.718 51.9042L130.084 51.1276L130.084 51.3864C129.954 52.0336 129.954 52.8102 130.213 53.5869C131.249 56.4345 134.226 64.589 134.226 64.589L151.053 64.589C151.053 64.589 154.03 56.4345 155.065 53.5869C155.324 52.8102 155.453 52.1631 155.195 51.3864L155.195 51.1276L158.56 51.9042C159.984 52.2925 161.537 51.257 161.925 49.8332C162.314 48.4094 161.278 46.8561 159.854 46.4678L153.641 45.1735L152.994 42.4553L156.359 43.2319C157.783 43.6202 159.337 42.5847 159.725 41.1609C160.113 39.7371 159.078 38.1839 157.654 37.7956L151.441 36.2423C150.535 34.5597 148.723 33.2653 146.652 33.2653C144.322 33.2653 141.215 33.2653 138.886 33.2653C136.815 33.2653 134.873 34.4302 134.096 36.2423L127.883 37.7956C126.46 38.1839 125.554 39.6077 125.812 41.1609C126.201 42.5847 127.625 43.4908 129.178 43.2319L132.155 42.3259Z" fill="white"/>
<path fill-rule="evenodd" clip-rule="evenodd" d="M157.913 155.065C160.76 153.253 162.961 150.535 163.996 147.17C165.161 144.451 165.679 141.604 165.42 139.015C164.126 124.259 170.986 119.729 176.163 128.79C181.341 137.85 185.094 148.593 177.069 168.786C174.998 173.963 175.257 179.917 177.717 184.965C180.046 189.884 185.224 202.31 185.483 207.746C186.518 230.786 166.326 240.623 140.439 238.811C114.551 236.999 94.6182 223.278 93.5827 200.239C93.1944 189.754 94.4888 180.435 105.879 167.491C109.633 163.22 109.633 157.525 108.468 151.7C105.879 139.015 102.773 131.249 109.374 123.353C115.975 115.458 121.412 119.082 120.247 125.424C119.858 127.625 118.952 130.861 118.564 134.873C117.917 139.921 119.47 145.099 122.577 148.982C123.871 150.535 125.554 151.959 127.236 153.124L126.848 177.846C126.719 180.823 128.013 183.671 130.084 185.742C132.155 187.813 135.002 189.107 137.98 188.978C140.827 188.978 144.451 188.978 147.299 188.978C150.147 188.978 153.124 187.813 155.195 185.742C157.266 183.671 158.301 180.823 158.431 177.846C158.301 177.976 157.913 155.065 157.913 155.065ZM132.284 227.55L152.994 227.55C154.547 227.55 155.712 226.385 155.712 224.832C155.712 223.278 154.547 222.113 152.994 222.113H132.284C130.731 222.113 129.566 223.278 129.566 224.832C129.437 226.255 130.731 227.55 132.284 227.55ZM142.639 214.088L152.994 214.088C154.547 214.088 155.712 212.923 155.712 211.37C155.712 209.817 154.547 208.652 152.994 208.652L142.639 208.652C141.086 208.652 139.921 209.817 139.921 211.37C139.792 212.794 141.086 214.088 142.639 214.088ZM132.284 202.18H142.639C144.192 202.18 145.357 201.015 145.357 199.462C145.357 197.909 144.192 196.744 142.639 196.744H132.284C130.731 196.744 129.566 197.909 129.566 199.462C129.437 200.886 130.731 202.18 132.284 202.18Z" fill="white"/>
</g>
<defs>
<clipPath id="clip0_3246_58552">
<rect width="193.302" height="237.234" fill="white" transform="translate(0 136.685) rotate(-45)"/>
</clipPath>
</defs>
</svg>
