<svg width="31" height="32" viewBox="0 0 31 32" fill="none" xmlns="http://www.w3.org/2000/svg">
<g opacity="0.9" clip-path="url(#clip0_7292_4370)">
<path d="M1.67886 12.6874V8.85403C1.68074 7.08313 2.38555 5.3854 3.63843 4.13385C4.89131 2.88229 6.58979 2.17929 8.36069 2.17929H12.187C12.3749 2.17929 12.5551 2.10464 12.688 1.97175C12.8209 1.83887 12.8955 1.65864 12.8955 1.47072C12.8955 1.28279 12.8209 1.10256 12.688 0.969682C12.5551 0.836799 12.3749 0.762146 12.187 0.762146H8.36069C6.21394 0.762145 4.155 1.61445 2.63636 3.13177C1.11771 4.64909 0.263597 6.70728 0.261719 8.85403V12.6874C0.261719 12.8753 0.336372 13.0556 0.469255 13.1884C0.602138 13.3213 0.782365 13.396 0.97029 13.396C1.15822 13.396 1.33844 13.3213 1.47133 13.1884C1.60421 13.0556 1.67886 12.8753 1.67886 12.6874Z" fill="white" stroke="white" stroke-width="0.75" stroke-miterlimit="10"/>
<path d="M18.8053 2.17929H22.6386C24.4089 2.17929 26.1066 2.88252 27.3584 4.13428C28.6101 5.38603 29.3134 7.08378 29.3134 8.85403V12.6874C29.3134 12.8753 29.388 13.0556 29.5209 13.1884C29.6538 13.3213 29.834 13.396 30.0219 13.396C30.2099 13.396 30.3901 13.3213 30.523 13.1884C30.6559 13.0556 30.7305 12.8753 30.7305 12.6874V8.85403C30.7305 6.70793 29.878 4.64973 28.3605 3.1322C26.8429 1.61468 24.7847 0.762146 22.6386 0.762146H18.8053C18.6173 0.762146 18.4371 0.836799 18.3042 0.969682C18.1713 1.10256 18.0967 1.28279 18.0967 1.47072C18.0967 1.65864 18.1713 1.83887 18.3042 1.97175C18.4371 2.10464 18.6173 2.17929 18.8053 2.17929Z" fill="white" stroke="white" stroke-width="0.75" stroke-miterlimit="10"/>
<path d="M12.187 29.8136H8.36069C6.58979 29.8136 4.89131 29.1106 3.63843 27.859C2.38555 26.6075 1.68074 24.9098 1.67886 23.1389V19.3197C1.67886 19.1317 1.60421 18.9515 1.47133 18.8186C1.33844 18.6857 1.15822 18.6111 0.97029 18.6111C0.782365 18.6111 0.602138 18.6857 0.469255 18.8186C0.336372 18.9515 0.261719 19.1317 0.261719 19.3197V23.153C0.265474 25.2979 1.12064 27.3535 2.63929 28.8682C4.15794 30.3829 6.21581 31.2326 8.36069 31.2307H12.187C12.3749 31.2307 12.5551 31.1561 12.688 31.0232C12.8209 30.8903 12.8955 30.7101 12.8955 30.5222C12.8955 30.3342 12.8209 30.154 12.688 30.0211C12.5551 29.8883 12.3749 29.8136 12.187 29.8136Z" fill="white" stroke="white" stroke-width="0.75" stroke-miterlimit="10"/>
<path d="M29.3134 19.3197V23.153C29.3134 24.9233 28.6101 26.621 27.3584 27.8728C26.1066 29.1245 24.4089 29.8278 22.6386 29.8278H18.8053C18.6173 29.8278 18.4371 29.9024 18.3042 30.0353C18.1713 30.1682 18.0967 30.3484 18.0967 30.5363C18.0967 30.7243 18.1713 30.9045 18.3042 31.0374C18.4371 31.1703 18.6173 31.2449 18.8053 31.2449H22.6386C23.7025 31.2449 24.7559 31.0351 25.7385 30.6276C26.7212 30.2201 27.6139 29.6227 28.3655 28.8698C29.1171 28.1169 29.7128 27.2232 30.1186 26.2398C30.5244 25.2564 30.7324 24.2027 30.7305 23.1389V19.3197C30.7305 19.1317 30.6559 18.9515 30.523 18.8186C30.3901 18.6857 30.2099 18.6111 30.0219 18.6111C29.834 18.6111 29.6538 18.6857 29.5209 18.8186C29.388 18.9515 29.3134 19.1317 29.3134 19.3197Z" fill="white" stroke="white" stroke-width="0.75" stroke-miterlimit="10"/>
<path d="M15.6099 11.823C16.4203 11.8216 17.2128 12.0606 17.8872 12.5098C18.5617 12.9589 19.0877 13.5981 19.3988 14.3463C19.7098 15.0945 19.792 15.9182 19.6347 16.7132C19.4775 17.5081 19.088 18.2385 18.5155 18.812C17.943 19.3855 17.2133 19.7762 16.4186 19.9348C15.624 20.0934 14.8001 20.0128 14.0514 19.703C13.3026 19.3932 12.6625 18.8683 12.2122 18.1946C11.7619 17.521 11.5215 16.7288 11.5215 15.9185C11.5215 14.8335 11.952 13.7929 12.7185 13.025C13.4851 12.2572 14.525 11.8249 15.6099 11.823ZM15.6099 9.69727C14.3795 9.69727 13.1767 10.0621 12.1536 10.7457C11.1305 11.4293 10.3331 12.401 9.86224 13.5378C9.39137 14.6745 9.26817 15.9254 9.50821 17.1322C9.74826 18.339 10.3408 19.4476 11.2108 20.3176C12.0809 21.1877 13.1894 21.7802 14.3962 22.0202C15.603 22.2603 16.8539 22.1371 17.9907 21.6662C19.1275 21.1953 20.0991 20.398 20.7827 19.3749C21.4663 18.3518 21.8312 17.149 21.8312 15.9185C21.8312 15.1015 21.6703 14.2925 21.3576 13.5378C21.045 12.783 20.5867 12.0971 20.009 11.5194C19.4313 10.9417 18.7455 10.4835 17.9907 10.1708C17.2359 9.85818 16.4269 9.69727 15.6099 9.69727Z" fill="white"/>
</g>
<defs>
<clipPath id="clip0_7292_4370">
<rect width="31" height="31" fill="white" transform="translate(0 0.5)"/>
</clipPath>
</defs>
</svg>
