<svg width="225" height="214" viewBox="0 0 225 214" fill="none" xmlns="http://www.w3.org/2000/svg">
<path d="M61.7212 0C27.9826 0 0 26.2196 0 58.9116V146.421V154.868V194.289C0 199.814 2.36504 204.745 6.08643 208.291C7.01671 209.178 8.02302 209.976 9.10767 210.678C12.3632 212.786 16.2423 214 20.3247 214H204.664C210.104 214 215.181 211.839 218.903 208.291C222.628 204.745 225 199.817 225 194.289V134.663C225 103.669 198.484 78.8421 166.542 78.8421C150.279 78.8421 135.658 69.96 128.881 56.4258L117.4 33.5035C107.077 12.8934 85.3685 0 61.7212 0ZM61.7212 16.8947C79.2377 16.8947 94.9983 26.4611 102.316 41.0709L113.796 63.9932V64.0042C123.579 83.5384 144.15 95.7368 166.542 95.7368C189.859 95.7368 208.125 113.317 208.125 134.663V146.421H184.197C183.696 146.335 183.189 146.295 182.681 146.3C182.268 146.31 181.857 146.351 181.45 146.421H156.072C155.571 146.335 155.064 146.295 154.556 146.3C154.143 146.31 153.732 146.351 153.325 146.421H99.8218C99.3211 146.335 98.8136 146.295 98.3057 146.3C97.8931 146.31 97.4818 146.351 97.0752 146.421H71.6968C71.1961 146.335 70.6886 146.295 70.1807 146.3C69.7681 146.31 69.3568 146.351 68.9502 146.421H43.5718C43.0711 146.335 42.5636 146.295 42.0557 146.3C41.6431 146.31 41.2318 146.351 40.8252 146.421H16.875V58.9116C16.875 35.8734 36.611 16.8947 61.7212 16.8947ZM16.875 163.316H33.75V177.395C33.7342 178.514 33.9407 179.625 34.3577 180.664C34.7746 181.703 35.3936 182.648 36.1786 183.446C36.9637 184.243 37.8992 184.876 38.9307 185.308C39.9623 185.74 41.0693 185.962 42.1875 185.962C43.3057 185.962 44.4127 185.74 45.4443 185.308C46.4758 184.876 47.4113 184.243 48.1964 183.446C48.9814 182.648 49.6004 181.703 50.0173 180.664C50.4343 179.625 50.6408 178.514 50.625 177.395V163.316H61.875V177.395C61.8592 178.514 62.0657 179.625 62.4827 180.664C62.8996 181.703 63.5186 182.648 64.3036 183.446C65.0887 184.243 66.0242 184.876 67.0557 185.308C68.0873 185.74 69.1943 185.962 70.3125 185.962C71.4307 185.962 72.5377 185.74 73.5693 185.308C74.6008 184.876 75.5363 184.243 76.3213 183.446C77.1064 182.648 77.7254 181.703 78.1423 180.664C78.5592 179.625 78.7658 178.514 78.75 177.395V163.316H90V177.395C89.9842 178.514 90.1908 179.625 90.6077 180.664C91.0246 181.703 91.6436 182.648 92.4287 183.446C93.2137 184.243 94.1492 184.876 95.1807 185.308C96.2123 185.74 97.3193 185.962 98.4375 185.962C99.5557 185.962 100.663 185.74 101.694 185.308C102.726 184.876 103.661 184.243 104.446 183.446C105.231 182.648 105.85 181.703 106.267 180.664C106.684 179.625 106.891 178.514 106.875 177.395V163.316H146.25V177.395C146.234 178.514 146.441 179.625 146.858 180.664C147.275 181.703 147.894 182.648 148.679 183.446C149.464 184.243 150.399 184.876 151.431 185.308C152.462 185.74 153.569 185.962 154.688 185.962C155.806 185.962 156.913 185.74 157.944 185.308C158.976 184.876 159.911 184.243 160.696 183.446C161.481 182.648 162.1 181.703 162.517 180.664C162.934 179.625 163.141 178.514 163.125 177.395V163.316H174.375V177.395C174.359 178.514 174.566 179.625 174.983 180.664C175.4 181.703 176.019 182.648 176.804 183.446C177.589 184.243 178.524 184.876 179.556 185.308C180.587 185.74 181.694 185.962 182.812 185.962C183.931 185.962 185.038 185.74 186.069 185.308C187.101 184.876 188.036 184.243 188.821 183.446C189.606 182.648 190.225 181.703 190.642 180.664C191.059 179.625 191.266 178.514 191.25 177.395V163.316H208.114V194.289C208.114 194.99 207.815 195.697 207.235 196.225C206.655 196.754 205.794 197.105 204.664 197.105H20.3247C19.7579 197.105 19.2617 197.02 18.8306 196.863C18.4012 196.709 18.0439 196.49 17.7539 196.225C17.1728 195.696 16.875 194.988 16.875 194.289V163.316Z" fill="white"/>
</svg>
