<svg width="217" height="138" viewBox="0 0 217 138" fill="none" xmlns="http://www.w3.org/2000/svg">
<path d="M209.653 0.000884639C207.737 0.0309128 205.911 0.821867 204.576 2.20015C203.241 3.57844 202.506 5.43145 202.533 7.3525C202.533 7.3525 188.066 43.6148 130.2 43.6148V36.3623C130.213 35.392 130.032 34.4289 129.667 33.53C129.303 32.6312 128.762 31.8148 128.077 31.1293C127.392 30.4438 126.577 29.9031 125.679 29.5392C124.782 29.1753 123.821 28.9956 122.854 29.0107C120.938 29.0407 119.112 29.8317 117.777 31.21C116.442 32.5883 115.707 34.4413 115.733 36.3623V43.6148H108.5V36.3623C108.513 35.392 108.332 34.4289 107.968 33.53C107.603 32.6312 107.062 31.8148 106.377 31.1293C105.692 30.4438 104.877 29.9031 103.98 29.5392C103.082 29.1753 102.121 28.9956 101.154 29.0107C99.2378 29.0407 97.412 29.8317 96.0771 31.21C94.7422 32.5883 94.0072 34.4413 94.0334 36.3623V43.6148H86.8001V36.3623C86.8134 35.392 86.6323 34.4289 86.2677 33.53C85.903 32.6312 85.3621 31.8148 84.6771 31.1293C83.9921 30.4438 83.1768 29.9031 82.2796 29.5392C81.3825 29.1753 80.4215 28.9956 79.4538 29.0107C77.5379 29.0407 75.7122 29.8317 74.3772 31.21C73.0423 32.5883 72.3073 34.4413 72.3336 36.3623V43.7989C55.8086 45.3106 42.1573 57.0584 37.7212 72.6246H14.4673C14.4805 71.6543 14.2995 70.6912 13.9348 69.7923C13.5701 68.8935 13.0293 68.0771 12.3443 67.3916C11.6592 66.7061 10.844 66.1653 9.9468 65.8014C9.0496 65.4375 8.0887 65.2578 7.12099 65.273C5.20507 65.303 3.3793 66.094 2.04439 67.4723C0.709479 68.8505 -0.0255141 70.7036 0.000723384 72.6246V87.1295C-0.0128321 88.0906 0.164247 89.0447 0.521671 89.9365C0.879095 90.8283 1.40973 91.6401 2.08275 92.3245C2.75577 93.0089 3.55774 93.5524 4.44206 93.9233C5.32638 94.2942 6.27542 94.4853 7.23401 94.4853C8.1926 94.4853 9.14163 94.2942 10.026 93.9233C10.9103 93.5524 11.7122 93.0089 12.3853 92.3245C13.0583 91.6401 13.5889 90.8283 13.9463 89.9365C14.3038 89.0447 14.4808 88.0906 14.4673 87.1295H36.1671V90.7557H37.6364C40.9402 107.958 54.7438 121.38 72.3336 123.052V130.644C72.32 131.605 72.4971 132.559 72.8545 133.451C73.2119 134.343 73.7426 135.155 74.4156 135.839C75.0886 136.524 75.8906 137.067 76.7749 137.438C77.6592 137.809 78.6083 138 79.5669 138C80.5255 138 81.4745 137.809 82.3588 137.438C83.2431 137.067 84.0451 136.524 84.7181 135.839C85.3911 135.155 85.9218 134.343 86.2792 133.451C86.6366 132.559 86.8137 131.605 86.8001 130.644V123.392H94.0334V130.644C94.0199 131.605 94.197 132.559 94.5544 133.451C94.9118 134.343 95.4424 135.155 96.1155 135.839C96.7885 136.524 97.5904 137.067 98.4748 137.438C99.3591 137.809 100.308 138 101.267 138C102.225 138 103.174 137.809 104.059 137.438C104.943 137.067 105.745 136.524 106.418 135.839C107.091 135.155 107.622 134.343 107.979 133.451C108.336 132.559 108.514 131.605 108.5 130.644V123.392H115.733V130.644C115.72 131.605 115.897 132.559 116.254 133.451C116.612 134.343 117.142 135.155 117.815 135.839C118.488 136.524 119.29 137.067 120.175 137.438C121.059 137.809 122.008 138 122.967 138C123.925 138 124.874 137.809 125.759 137.438C126.643 137.067 127.445 136.524 128.118 135.839C128.791 135.155 129.321 134.343 129.679 133.451C130.036 132.559 130.213 131.605 130.2 130.644V123.392H133.816C145.153 123.392 154.465 115.633 157.65 105.261H159.133V98.0082C159.133 84.0749 147.713 72.6246 133.816 72.6246H124.083C123.676 72.5565 123.265 72.5234 122.854 72.5254C122.503 72.5331 122.154 72.5662 121.808 72.6246H102.383C101.977 72.5565 101.565 72.5234 101.154 72.5254C100.803 72.5331 100.454 72.5662 100.108 72.6246H80.6829C80.2768 72.5565 79.8656 72.5234 79.4538 72.5254C79.1034 72.5331 78.754 72.5662 78.4084 72.6246H72.3336C71.3751 72.611 70.4234 72.7886 69.534 73.1469C68.6445 73.5053 67.835 74.0373 67.1524 74.7122C66.4698 75.3869 65.9277 76.191 65.5578 77.0777C65.1878 77.9644 64.9973 78.9159 64.9973 79.8771C64.9973 80.8382 65.1878 81.7897 65.5578 82.6764C65.9277 83.5631 66.4698 84.3672 67.1524 85.042C67.835 85.7168 68.6445 86.2488 69.534 86.6072C70.4234 86.9656 71.3751 87.1431 72.3336 87.1295V108.533C60.0206 106.779 50.6337 96.3622 50.6337 83.5033C50.6337 69.4014 61.8857 58.1197 75.9502 58.1197H78.3519C79.133 58.2491 79.9301 58.2491 80.7112 58.1197H100.052C100.833 58.2491 101.63 58.2491 102.411 58.1197H121.752C122.533 58.2491 123.33 58.2491 124.111 58.1197H130.2C188.066 58.1197 202.533 94.382 202.533 94.382C202.519 95.343 202.696 96.2972 203.054 97.189C203.411 98.0808 203.942 98.8925 204.615 99.5769C205.288 100.261 206.09 100.805 206.974 101.176C207.858 101.547 208.807 101.738 209.766 101.738C210.725 101.738 211.674 101.547 212.558 101.176C213.442 100.805 214.244 100.261 214.917 99.5769C215.59 98.8925 216.121 98.0808 216.478 97.189C216.836 96.2972 217.013 95.343 216.999 94.382V7.3525C217.013 6.38219 216.831 5.41909 216.467 4.52022C216.102 3.62135 215.561 2.80499 214.876 2.11948C214.191 1.43396 213.376 0.893243 212.479 0.529335C211.582 0.165427 210.621 -0.0142702 209.653 0.000884639ZM86.8001 87.1295H94.0334V108.887H86.8001V87.1295ZM108.5 87.1295H115.733V108.887H108.5V87.1295ZM130.2 87.1295H133.816C139.898 87.1295 144.666 91.9102 144.666 98.0082C144.666 104.106 139.898 108.887 133.816 108.887H130.2V87.1295Z" fill="white"/>
</svg>
