<svg width="205" height="203" viewBox="0 0 205 203" fill="none" xmlns="http://www.w3.org/2000/svg">
<path d="M194.493 0L183.119 10.6517L175.378 2.86976L169.454 8.82544L176.987 16.3986L170.856 22.1456L163.53 14.7811L157.606 20.7368L164.724 27.8926L159.912 32.3947L169.699 42.2414L179.901 31.2394L187.227 38.6039L193.151 32.6482L185.618 25.075L191.335 18.9031L199.076 26.6925L205 20.7368L197.051 12.7388L201.93 7.47628L194.493 0ZM151.755 40.0425L128.34 61.9794C117.84 54.2144 106.602 51.8134 98.281 54.1304C81.1711 58.8971 65.9161 77.5506 65.9161 77.5506C65.9161 77.5506 75.2352 85.6727 61.8381 99.1446C48.0271 113.029 37.9777 103.036 37.9777 103.036C37.9777 103.036 25.2699 106.128 13.3685 118.092C-3.76037 135.316 -5.886 159.549 15.5707 181.123L43.4571 144.211L58.4792 159.313L21.7619 187.347C43.2186 208.917 67.3274 206.78 84.4601 189.561C96.3615 177.596 99.4377 164.821 99.4377 164.821C99.4377 164.821 89.4972 154.718 103.308 140.834C116.709 127.362 124.788 136.735 124.788 136.735C124.788 136.735 143.344 121.399 148.085 104.198C149.589 98.7485 149.059 92.0431 146.424 85.1163L123.313 104.765L116.795 99.3086L162.099 50.4407L151.755 40.0425Z" fill="white"/>
</svg>
