<svg width="16" height="16" viewBox="0 0 16 16" fill="none" xmlns="http://www.w3.org/2000/svg">
<circle cx="7.69231" cy="7.92278" r="7.69231" fill="white"/>
<path d="M7.19028 12C7.11028 12 7.04228 11.972 6.98628 11.916C6.93028 11.86 6.90228 11.792 6.90228 11.712V6.048C6.90228 5.968 6.93028 5.9 6.98628 5.844C7.04228 5.788 7.11028 5.76 7.19028 5.76H8.18628C8.27428 5.76 8.34228 5.788 8.39028 5.844C8.44628 5.9 8.47428 5.968 8.47428 6.048V11.712C8.47428 11.792 8.44628 11.86 8.39028 11.916C8.34228 11.972 8.27428 12 8.18628 12H7.19028ZM7.14228 4.728C7.05428 4.728 6.98228 4.704 6.92628 4.656C6.87828 4.6 6.85428 4.528 6.85428 4.44V3.576C6.85428 3.496 6.87828 3.428 6.92628 3.372C6.98228 3.316 7.05428 3.288 7.14228 3.288H8.23428C8.32228 3.288 8.39428 3.316 8.45028 3.372C8.50628 3.428 8.53428 3.496 8.53428 3.576V4.44C8.53428 4.528 8.50628 4.6 8.45028 4.656C8.39428 4.704 8.32228 4.728 8.23428 4.728H7.14228Z" fill="black"/>
</svg>
