<svg width="213" height="214" viewBox="0 0 213 214" fill="none" xmlns="http://www.w3.org/2000/svg">
<g filter="url(#filter0_i_213_27863)">
<circle cx="107.287" cy="106.287" r="65.2874" fill="#292C31"/>
</g>
<g opacity="0.4">
<path opacity="0.0344828" d="M64.3884 115.151C52.2972 110.283 54.1539 92.6181 66.9929 90.3709C74.4116 89.0723 79.4617 82.1215 78.4042 74.6645C76.574 61.7596 92.801 54.5348 101.167 64.5301C106.001 70.3056 114.545 71.2037 120.474 66.5594C130.735 58.5219 145.106 68.9625 140.632 81.205C138.047 88.2791 141.542 96.128 148.529 98.9406C160.62 103.808 158.763 121.473 145.924 123.721C138.505 125.019 133.455 131.97 134.513 139.427C136.343 152.332 120.116 159.557 111.75 149.562C106.917 143.786 98.3719 142.888 92.4427 147.532C82.1818 155.57 67.8115 145.129 72.2848 132.887C74.8696 125.813 71.375 117.964 64.3884 115.151Z" stroke="white"/>
<path opacity="0.0689655" d="M64.7789 113.11C53.1101 107.687 55.8533 90.3668 68.627 88.8147C76.0149 87.917 81.3578 81.3191 80.6998 73.906C79.5622 61.0887 95.9334 54.8044 103.664 65.0907C108.136 71.04 116.521 72.3681 122.612 68.0917C133.143 60.6979 146.771 71.7336 141.729 83.572C138.812 90.419 141.855 98.345 148.604 101.482C160.273 106.905 157.529 124.225 144.756 125.777C137.368 126.675 132.025 133.273 132.683 140.686C133.82 153.503 117.449 159.788 109.718 149.501C105.247 143.552 96.8614 142.224 90.7704 146.5C80.2391 153.894 66.6112 142.858 71.6538 131.02C74.5704 124.173 71.5279 116.247 64.7789 113.11Z" stroke="white"/>
<path opacity="0.103448" d="M64.9322 110.36C53.7102 104.411 57.309 87.48 69.9804 86.61C77.3161 86.1063 82.9288 79.8727 82.6629 72.5246C82.2037 59.8316 98.6656 54.4828 105.755 65.0215C109.859 71.1226 118.064 72.8666 124.294 68.9623C135.057 62.2181 147.92 73.8001 142.338 85.2089C139.106 91.8137 141.699 99.7912 148.195 103.235C159.417 109.184 155.818 126.115 143.147 126.985C135.811 127.488 130.199 133.722 130.464 141.07C130.924 153.763 114.462 159.112 107.373 148.573C103.269 142.472 95.0638 140.728 88.833 144.632C78.0702 151.377 65.2071 139.795 70.7893 128.386C74.0209 121.781 71.4288 113.803 64.9322 110.36Z" stroke="white"/>
<path opacity="0.137931" d="M65.6609 108.517C54.9084 102.074 59.3296 85.5741 71.8627 85.3711C79.1255 85.2535 84.9847 79.3942 85.1024 72.1315C85.3054 59.5983 101.806 55.1771 108.248 65.9296C111.981 72.1606 119.985 74.3052 126.334 70.7757C137.289 64.6849 149.368 76.7639 143.277 87.7194C139.748 94.068 141.892 102.072 148.123 105.805C158.876 112.247 154.455 128.748 141.922 128.951C134.659 129.068 128.8 134.928 128.682 142.19C128.479 154.723 111.979 159.145 105.536 148.392C101.803 142.161 93.7992 140.017 87.4507 143.546C76.4951 149.637 64.4162 137.558 70.5069 126.602C74.0364 120.254 71.8918 112.25 65.6609 108.517Z" stroke="white"/>
<path opacity="0.172414" d="M66.1467 106.751C55.8842 99.8472 61.0928 83.8168 73.4531 84.2639C80.6228 84.5233 86.705 79.0469 87.1964 71.8894C88.0437 59.5501 104.531 56.0456 110.324 66.9735C113.684 73.3124 121.468 75.8415 127.912 72.6883C139.022 67.2524 150.3 79.7784 143.733 90.2592C139.923 96.3386 141.625 104.344 147.578 108.349C157.84 115.252 152.632 131.282 140.272 130.835C133.102 130.576 127.02 136.052 126.528 143.21C125.681 155.549 109.194 159.053 103.401 148.126C100.041 141.787 92.257 139.258 85.8126 142.411C74.7028 147.847 63.4244 135.321 69.9917 124.84C73.8012 118.76 72.0996 110.755 66.1467 106.751Z" stroke="white"/>
<path opacity="0.206897" d="M66.3887 104.23C56.6346 96.8994 62.5938 81.3753 74.7479 82.454C81.8053 83.0804 88.0866 77.9939 88.9412 70.9605C90.413 58.8477 106.837 56.2464 111.98 67.3116C114.966 73.7367 122.512 76.6332 129.03 73.8566C140.256 69.0748 150.721 81.9976 143.709 91.9841C139.638 97.7828 140.903 105.766 146.566 110.023C156.321 117.354 150.361 132.878 138.207 131.799C131.15 131.173 124.869 136.259 124.014 143.293C122.542 155.405 106.118 158.007 100.975 146.941C97.9892 140.516 90.4435 137.62 83.9251 140.396C72.6992 145.178 62.2345 132.255 69.2457 122.269C73.3169 116.47 72.0525 108.487 66.3887 104.23Z" stroke="white"/>
<path opacity="0.241379" d="M67.2012 101.758C57.9718 94.0332 64.643 79.0494 76.5592 80.7394C83.4858 81.7218 89.9423 77.0309 91.1484 70.1398C93.2235 58.2845 109.535 56.5701 114.03 67.7348C116.642 74.2246 123.933 77.4706 130.504 75.0696C141.809 70.939 151.449 84.2083 144.028 93.6831C139.714 99.1905 140.548 107.127 145.913 111.618C155.142 119.342 148.471 134.326 136.555 132.636C129.628 131.654 123.172 136.344 121.965 143.236C119.89 155.091 103.578 156.805 99.0839 145.641C96.4713 139.151 89.1807 135.905 82.6097 138.306C71.3052 142.436 61.6645 129.167 69.0862 119.692C73.4002 114.185 72.566 106.248 67.2012 101.758Z" stroke="white"/>
<path opacity="0.275862" d="M67.7696 100.135C59.0789 92.0509 66.4222 77.6389 78.0703 79.9182C84.8483 81.2446 91.456 76.9535 93.0012 70.222C95.6566 58.6538 111.809 57.8073 115.659 69.0345C117.9 75.5676 124.92 79.1445 131.522 77.1169C142.868 73.6325 151.678 87.198 143.88 96.1459C139.342 101.353 139.754 109.221 144.811 113.925C153.502 122.008 146.159 136.42 134.511 134.141C127.733 132.815 121.125 137.106 119.58 143.837C116.924 155.405 100.772 156.252 96.9214 145.025C94.6811 138.491 87.6611 134.915 81.0588 136.942C69.7128 140.427 60.9033 126.861 68.7013 117.913C73.239 112.707 72.8266 104.839 67.7696 100.135Z" stroke="white"/>
<path opacity="0.310345" d="M68.9102 97.7136C60.7703 89.3056 68.7444 75.4942 80.0958 78.3396C86.7085 79.9971 93.4435 76.1086 95.3144 69.5531C98.5259 58.2998 114.474 58.2998 117.686 69.5531C119.556 76.1086 126.291 79.9971 132.904 78.3396C144.256 75.4942 152.23 89.3057 144.09 97.7136C139.348 102.612 139.348 110.389 144.09 115.286C152.23 123.694 144.256 137.506 132.904 134.661C126.291 133.003 119.556 136.891 117.686 143.447C114.474 154.7 98.5259 154.7 95.3144 143.447C93.4435 136.891 86.7085 133.003 80.0958 134.661C68.7444 137.506 60.7703 123.694 68.9102 115.286C73.6521 110.388 73.6521 102.612 68.9102 97.7136Z" stroke="white"/>
<path opacity="0.344828" d="M69.8092 96.1131C62.2299 87.4162 70.7923 74.2312 81.8202 77.6179C88.2517 79.5931 95.0903 76.1087 97.2727 69.7445C101.015 58.8321 116.715 59.6549 119.295 70.8987C120.801 77.4561 127.238 81.6363 133.84 80.3442C145.162 78.1288 152.299 92.1366 143.852 99.9936C138.926 104.576 138.524 112.24 142.945 117.313C150.524 126.01 141.961 139.195 130.934 135.808C124.502 133.833 117.664 137.317 115.481 143.681C111.739 154.594 96.0393 153.771 93.4583 142.527C91.9531 135.97 85.5162 131.789 78.9134 133.082C67.592 135.297 60.4547 121.289 68.9016 113.432C73.8279 108.85 74.2296 101.185 69.8092 96.1131Z" stroke="white"/>
<path opacity="0.37931" d="M71.2852 94.5033C64.2741 85.5526 73.3815 73.0174 84.0606 76.9194C90.2961 79.1978 97.2146 76.1175 99.6938 69.9591C103.94 59.412 119.349 61.0316 121.31 72.231C122.454 78.7703 128.581 83.2217 135.154 82.2896C146.411 80.6931 152.713 94.848 143.994 102.145C138.903 106.406 138.112 113.938 142.206 119.164C149.217 128.115 140.109 140.65 129.43 136.748C123.195 134.47 116.276 137.55 113.797 143.708C109.551 154.256 94.1415 152.636 92.1812 141.436C91.0366 134.897 84.9098 130.446 78.3368 131.378C67.0797 132.974 60.7776 118.82 69.4965 111.522C74.5874 107.261 75.379 99.7295 71.2852 94.5033Z" stroke="white"/>
<path opacity="0.413793" d="M72.5263 92.8704C66.0888 83.7013 75.6971 71.8361 86.0042 76.2265C92.0298 78.7931 99.0049 76.1156 101.765 70.1764C106.487 60.0168 121.567 62.4052 122.918 73.5267C123.708 80.0283 129.515 84.7302 136.039 84.1511C147.198 83.1607 152.669 97.4143 143.714 104.145C138.478 108.08 137.309 115.46 141.073 120.82C147.51 129.989 137.902 141.854 127.595 137.464C121.569 134.897 114.594 137.575 111.833 143.514C107.112 153.674 92.0319 151.285 90.6805 140.164C89.8905 133.662 84.0841 128.96 77.5603 129.539C66.4009 130.53 60.9295 116.276 69.8853 109.545C75.1208 105.61 76.2896 98.2306 72.5263 92.8704Z" stroke="white"/>
<path opacity="0.448276" d="M73.5357 91.2012C67.6754 81.8488 77.7396 70.6713 87.6534 75.5219C93.4562 78.3612 100.465 76.0839 103.491 70.3761C108.66 60.6246 123.372 63.7518 124.128 74.7627C124.571 81.2077 130.047 86.1389 136.503 85.9053C147.533 85.5063 152.181 99.8109 143.023 105.971C137.663 109.577 136.131 116.785 139.561 122.26C145.421 131.612 135.357 142.79 125.443 137.939C119.64 135.1 112.632 137.377 109.606 143.085C104.437 152.836 89.7245 149.709 88.9684 138.698C88.5259 132.253 83.0492 127.322 76.5933 127.555C65.5637 127.955 60.9158 113.65 70.0735 107.49C75.4338 103.884 76.966 96.6754 73.5357 91.2012Z" stroke="white"/>
<path opacity="0.482759" d="M75.1355 90.299C69.8535 80.7981 80.3286 70.3231 89.8294 75.6051C95.3976 78.7007 102.418 76.8197 105.692 71.3547C111.279 62.0299 125.588 65.8641 125.764 76.733C125.867 83.1031 131.006 88.2421 137.376 88.3453C148.245 88.5213 152.08 102.831 142.755 108.418C137.29 111.692 135.409 118.712 138.504 124.28C143.786 133.781 133.311 144.256 123.811 138.974C118.242 135.878 111.222 137.759 107.948 143.224C102.361 152.549 88.0517 148.715 87.8757 137.846C87.7725 131.476 82.6335 126.337 76.2634 126.234C65.3945 126.058 61.5603 111.749 70.8851 106.162C76.3501 102.887 78.2311 95.8672 75.1355 90.299Z" stroke="white"/>
<path opacity="0.517241" d="M76.5143 88.519C71.8099 78.9043 82.6503 69.1435 91.7206 74.8272C97.0435 78.1626 104.053 76.6727 107.559 71.4606C113.533 62.5791 127.407 67.0868 127.02 77.7838C126.792 84.0613 131.587 89.3865 137.854 89.8168C148.533 90.5501 151.566 104.818 142.108 109.832C136.558 112.774 134.344 119.589 137.105 125.231C141.809 134.846 130.969 144.607 121.898 138.923C116.576 135.588 109.566 137.078 106.06 142.29C100.086 151.171 86.2126 146.664 86.5996 135.967C86.8267 129.689 82.0318 124.364 75.765 123.934C65.0862 123.2 62.0534 108.932 71.5107 103.919C77.0607 100.976 79.2751 94.1614 76.5143 88.519Z" stroke="white"/>
<path opacity="0.551724" d="M77.6796 87.4814C73.5501 77.7867 84.7102 68.7495 93.3344 74.8044C98.4024 78.3625 105.379 77.2574 109.1 72.3074C115.431 63.8838 128.837 69.0301 127.906 79.5263C127.358 85.6944 131.804 91.1841 137.951 91.931C148.412 93.2021 150.658 107.386 141.102 111.827C135.487 114.437 132.955 121.032 135.382 126.729C139.511 136.423 128.351 145.461 119.727 139.406C114.659 135.848 107.682 136.953 103.962 141.903C97.6307 150.326 84.2241 145.18 85.1557 134.684C85.7032 128.516 81.2577 123.026 75.1106 122.279C64.65 121.008 62.4036 106.824 71.9594 102.383C77.5748 99.7732 80.1063 93.1784 77.6796 87.4814Z" stroke="white"/>
<path opacity="0.586207" d="M79.4538 86.3589C75.8945 76.6178 87.3287 68.3103 95.4932 74.7056C100.298 78.4691 107.222 77.7413 111.139 73.0612C117.795 65.1082 130.707 70.8568 129.251 81.1251C128.394 87.1677 132.486 92.8001 138.497 93.8523C148.713 95.6404 150.191 109.697 140.57 113.57C134.908 115.849 132.077 122.209 134.171 127.941C137.73 137.682 126.296 145.99 118.132 139.595C113.327 135.831 106.403 136.559 102.486 141.239C95.8298 149.192 82.9181 143.443 84.3744 133.175C85.2314 127.132 81.1391 121.5 75.1275 120.448C64.9117 118.66 63.4344 104.604 73.0552 100.731C78.7166 98.4515 81.5484 92.0913 79.4538 86.3589Z" stroke="white"/>
<path opacity="0.62069" d="M81.0287 85.1405C78.0329 75.3855 89.6961 67.8114 97.3892 74.5159C101.923 78.467 108.774 78.1079 112.87 73.7046C119.82 66.2327 132.211 72.5462 130.251 82.5609C129.096 88.4627 132.832 94.2162 138.694 95.5616C148.64 97.8447 149.368 111.732 139.715 115.043C134.026 116.993 130.912 123.106 132.677 128.855C135.673 138.61 124.01 146.184 116.317 139.479C111.783 135.528 104.932 135.887 100.836 140.29C93.8861 147.762 81.4951 141.449 83.4549 131.434C84.6097 125.532 80.8734 119.779 75.0121 118.433C65.0661 116.15 64.3383 102.263 73.9911 98.9526C79.6797 97.0018 82.7942 90.8893 81.0287 85.1405Z" stroke="white"/>
<path opacity="0.655172" d="M82.4124 84.6317C79.9718 74.8947 91.8189 68.0548 99.031 75.037C103.288 79.1578 110.046 79.1578 114.302 75.037C121.515 68.0548 133.362 74.8947 130.921 84.6317C129.481 90.3783 132.86 96.2313 138.557 97.8571C148.21 100.612 148.21 114.292 138.557 117.047C132.86 118.672 129.481 124.525 130.921 130.272C133.362 140.009 121.515 146.849 114.302 139.867C110.046 135.746 103.288 135.746 99.031 139.867C91.8189 146.849 79.9718 140.009 82.4125 130.272C83.8529 124.525 80.4737 118.672 74.7767 117.047C65.1239 114.292 65.1239 100.612 74.7767 97.8572C80.4737 96.2313 83.8529 90.3783 82.4124 84.6317Z" stroke="white"/>
<path opacity="0.689655" d="M83.6138 83.1908C81.718 73.5028 93.7047 67.3952 100.428 74.6234C104.402 78.896 111.05 79.2444 115.449 75.4106C122.891 68.9248 134.174 76.2519 131.276 85.6886C129.563 91.2667 132.585 97.1977 138.104 99.0905C147.442 102.293 146.738 115.727 137.117 117.936C131.429 119.241 127.804 124.824 128.925 130.551C130.82 140.239 118.834 146.346 112.11 139.118C108.136 134.845 101.488 134.497 97.0894 138.331C89.6473 144.817 78.3646 137.49 81.2626 128.053C82.9757 122.475 79.9537 116.544 74.434 114.651C65.0961 111.449 65.8002 98.0141 75.4217 95.8055C81.1089 94.5 84.7344 88.9173 83.6138 83.1908Z" stroke="white"/>
<path opacity="0.724138" d="M85.4583 82.4405C84.0955 72.8314 96.1783 67.4518 102.407 74.8943C106.095 79.3005 112.614 79.9857 117.137 76.4425C124.778 70.4577 135.478 78.2319 132.147 87.3477C130.175 92.7446 132.841 98.7326 138.171 100.878C147.175 104.503 145.792 117.657 136.232 119.33C130.572 120.321 126.72 125.623 127.526 131.312C128.889 140.922 116.806 146.301 110.577 138.859C106.889 134.452 100.371 133.767 95.8472 137.31C88.2068 143.295 77.5066 135.521 80.8375 126.405C82.8094 121.008 80.1434 115.02 74.8132 112.874C65.8101 109.25 67.1926 96.0963 76.7525 94.423C82.4124 93.4324 86.2651 88.1295 85.4583 82.4405Z" stroke="white"/>
<path opacity="0.758621" d="M87.1389 81.5567C86.2956 72.0552 98.4316 67.3966 104.163 75.0219C107.561 79.5438 113.935 80.5532 118.564 77.3029C126.371 71.8218 136.474 80.0026 132.735 88.7785C130.519 93.9827 132.831 100.007 137.961 102.391C146.611 106.412 144.577 119.251 135.108 120.401C129.493 121.084 125.432 126.099 125.932 131.733C126.775 141.235 114.639 145.893 108.908 138.268C105.51 133.746 99.1363 132.737 94.5068 135.987C86.6999 141.468 76.5974 133.287 80.3356 124.511C82.5523 119.307 80.2398 113.283 75.1102 110.899C66.46 106.878 68.4936 94.0389 77.9628 92.8883C83.5781 92.206 87.639 87.1912 87.1389 81.5567Z" stroke="white"/>
<path opacity="0.793103" d="M88.6665 81.3472C88.3277 71.9809 100.475 68.034 105.706 75.8107C108.814 80.4301 115.026 81.7505 119.744 78.7944C127.686 73.8178 137.178 82.3643 133.058 90.783C130.612 95.7838 132.574 101.824 137.493 104.432C145.774 108.821 143.118 121.315 133.768 121.957C128.214 122.338 123.964 127.058 124.165 132.622C124.504 141.988 112.357 145.935 107.126 138.158C104.018 133.539 97.8059 132.218 93.0882 135.174C85.1462 140.151 75.6543 131.604 79.7735 123.186C82.2203 118.185 80.2578 112.145 75.3388 109.537C67.0579 105.148 69.7135 92.6541 79.0639 92.012C84.6182 91.6306 88.8678 86.9109 88.6665 81.3472Z" stroke="white"/>
<path opacity="0.827586" d="M90.0507 80.1728C90.1998 70.968 102.318 67.721 107.05 75.618C109.865 80.3171 115.901 81.9345 120.689 79.2727C128.735 74.7994 137.607 83.6706 133.133 91.7168C130.471 96.5046 132.089 102.541 136.788 105.356C144.685 110.088 141.438 122.206 132.233 122.355C126.756 122.444 122.337 126.863 122.248 132.34C122.099 141.545 109.981 144.792 105.249 136.895C102.434 132.196 96.3977 130.578 91.6098 133.24C83.5637 137.714 74.6925 128.842 79.1657 120.796C81.8276 116.008 80.2102 109.972 75.511 107.157C67.614 102.425 70.8611 90.3068 80.0659 90.1577C85.5432 90.069 89.962 85.6501 90.0507 80.1728Z" stroke="white"/>
<path opacity="0.862069" d="M92.1191 80.4755C92.7384 71.4572 104.788 68.896 109.022 76.8827C111.546 81.6439 117.392 83.5435 122.233 81.1752C130.352 77.2023 138.595 86.357 133.795 94.017C130.934 98.5833 132.212 104.596 136.684 107.604C144.184 112.649 140.377 124.365 131.344 124.039C125.958 123.844 121.39 127.957 121.021 133.333C120.402 142.352 108.352 144.913 104.118 136.926C101.594 132.165 95.7477 130.265 90.9073 132.634C82.7876 136.607 74.5446 127.452 79.3445 119.792C82.2058 115.225 80.9277 109.213 76.4565 106.205C68.956 101.159 72.7628 89.4433 81.7964 89.7701C87.1817 89.965 91.75 85.8516 92.1191 80.4755Z" stroke="white"/>
<path opacity="0.896552" d="M94.0664 80.6173C95.1367 71.809 107.08 69.9173 110.82 77.9638C113.053 82.7696 118.697 84.9361 123.573 82.8593C131.736 79.382 139.346 88.7794 134.248 96.0414C131.202 100.379 132.148 106.35 136.385 109.534C143.478 114.865 139.144 126.154 130.306 125.369C125.027 124.901 120.329 128.705 119.69 133.966C118.619 142.774 106.676 144.666 102.936 136.62C100.703 131.814 95.0588 129.647 90.1832 131.724C82.0198 135.201 74.41 125.804 79.5085 118.542C82.5536 114.205 81.6079 108.234 77.3715 105.05C70.2785 99.7186 74.6119 88.4296 83.4503 89.2141C88.729 89.6826 93.4272 85.8781 94.0664 80.6173Z" stroke="white"/>
<path opacity="0.931035" d="M95.0874 79.777C96.5885 71.2007 108.389 69.9604 111.64 78.0372C113.586 82.8704 119.016 85.2879 123.909 83.4998C132.087 80.5116 139.062 90.1109 133.693 96.9651C130.48 101.067 131.101 106.978 135.096 110.322C141.773 115.91 136.947 126.749 128.327 125.527C123.168 124.795 118.36 128.289 117.461 133.421C115.96 141.997 104.16 143.238 100.908 135.161C98.9628 130.328 93.533 127.91 88.6393 129.698C80.4614 132.686 73.4872 123.087 78.8562 116.233C82.069 112.131 81.4477 106.22 77.4523 102.876C70.7756 97.288 75.6017 86.4485 84.2221 87.6711C89.3806 88.4027 94.1891 84.9091 95.0874 79.777Z" stroke="white"/>
<path opacity="0.965517" d="M96.8264 79.5826C98.7371 71.2588 110.36 70.6497 113.13 78.7282C114.791 83.5722 119.996 86.2243 124.891 84.7209C133.055 82.2137 139.394 91.9746 133.783 98.4129C130.419 102.274 130.724 108.107 134.474 111.595C140.727 117.412 135.443 127.782 127.062 126.141C122.036 125.158 117.137 128.34 115.991 133.331C114.081 141.655 102.458 142.264 99.688 134.185C98.0269 129.341 92.8218 126.689 87.9266 128.192C79.7627 130.7 73.4239 120.939 79.0349 114.5C82.3993 110.64 82.0936 104.806 78.344 101.318C72.0908 95.5018 77.3745 85.1318 85.7558 86.7719C90.7814 87.7553 95.6807 84.5737 96.8264 79.5826Z" stroke="white"/>
<path d="M98.4785 80.0307C100.777 71.9784 112.188 71.9784 114.486 80.0307C115.867 84.8691 120.838 87.7391 125.719 86.5157C133.841 84.4797 139.547 94.3625 133.722 100.379C130.223 103.994 130.223 109.734 133.722 113.349C139.547 119.365 133.841 129.248 125.719 127.212C120.838 125.988 115.867 128.858 114.486 133.697C112.188 141.749 100.777 141.749 98.4785 133.697C97.0977 128.858 92.1268 125.988 87.2462 127.212C79.1237 129.248 73.4179 119.365 79.2423 113.349C82.7421 109.734 82.7421 103.994 79.2423 100.379C73.4179 94.3625 79.1237 84.4797 87.2462 86.5157C92.1268 87.7391 97.0977 84.8691 98.4785 80.0307Z" stroke="white"/>
</g>
<path d="M71.8 97.32H74.536V111.792H80.176V114H71.8V97.32ZM98.5921 105.624C98.5921 110.64 94.8241 114.168 90.0721 114.168C85.3681 114.168 81.5521 110.64 81.5521 105.624C81.5521 100.632 85.3681 97.104 90.0721 97.104C94.8241 97.104 98.5921 100.632 98.5921 105.624ZM84.3601 105.624C84.3601 109.392 86.7601 111.792 90.0721 111.792C93.3841 111.792 95.7841 109.392 95.7841 105.624C95.7841 101.856 93.3841 99.504 90.0721 99.504C86.7601 99.504 84.3601 101.856 84.3601 105.624ZM108.892 97.104C112.372 97.104 115.372 98.856 116.644 102.12H113.356C112.468 100.44 110.884 99.6 108.892 99.6C105.58 99.6 103.18 101.952 103.18 105.624C103.18 109.296 105.58 111.672 108.892 111.672C111.916 111.672 113.812 109.848 114.22 107.04H107.956V104.856H117.148V106.992C116.644 110.856 113.38 114.144 108.892 114.144C104.188 114.144 100.372 110.64 100.372 105.624C100.372 100.632 104.188 97.104 108.892 97.104ZM135.975 105.624C135.975 110.64 132.207 114.168 127.455 114.168C122.751 114.168 118.935 110.64 118.935 105.624C118.935 100.632 122.751 97.104 127.455 97.104C132.207 97.104 135.975 100.632 135.975 105.624ZM121.743 105.624C121.743 109.392 124.143 111.792 127.455 111.792C130.767 111.792 133.167 109.392 133.167 105.624C133.167 101.856 130.767 99.504 127.455 99.504C124.143 99.504 121.743 101.856 121.743 105.624ZM141.499 112.416C141.499 113.4 140.731 114.168 139.771 114.168C138.787 114.168 138.019 113.4 138.019 112.416C138.019 111.432 138.787 110.664 139.771 110.664C140.731 110.664 141.499 111.432 141.499 112.416Z" fill="white"/>
<defs>
<filter id="filter0_i_213_27863" x="42" y="41" width="130.575" height="164.575" filterUnits="userSpaceOnUse" color-interpolation-filters="sRGB">
<feFlood flood-opacity="0" result="BackgroundImageFix"/>
<feBlend mode="normal" in="SourceGraphic" in2="BackgroundImageFix" result="shape"/>
<feColorMatrix in="SourceAlpha" type="matrix" values="0 0 0 0 0 0 0 0 0 0 0 0 0 0 0 0 0 0 127 0" result="hardAlpha"/>
<feOffset dy="34"/>
<feGaussianBlur stdDeviation="27"/>
<feComposite in2="hardAlpha" operator="arithmetic" k2="-1" k3="1"/>
<feColorMatrix type="matrix" values="0 0 0 0 0 0 0 0 0 0 0 0 0 0 0 0 0 0 0.35 0"/>
<feBlend mode="normal" in2="shape" result="effect1_innerShadow_213_27863"/>
</filter>
</defs>
</svg>
