<svg width="26" height="25" viewBox="0 0 26 25" fill="none" xmlns="http://www.w3.org/2000/svg">
<path d="M25.3421 20.6343L14.5775 8.29805C14.4625 8.16567 14.333 8.04715 14.1914 7.94483V5.18256L19.8965 3.32319C20.5777 3.1016 20.5595 2.11404 19.8711 1.91824L13.4576 0.0959121C13.3675 0.0580036 13.2732 0.0313507 13.1768 0.0165366L13.1189 0V0.00727607C13.0758 0.00252635 13.0324 9.76299e-05 12.9889 0C12.6706 -1.18325e-06 12.3652 0.128471 12.1398 0.357245C11.9144 0.58602 11.7873 0.896426 11.7864 1.2204V7.95806C11.6537 8.05725 11.5316 8.17056 11.4224 8.29607L0.657846 20.6343C-0.747448 22.2457 0.247697 25 2.23604 25H23.7646C25.7523 25.0007 26.7474 22.2457 25.3421 20.6343ZM19.3199 17.5175L15.2964 15.4756L13.52 16.274L12.0464 14.4834L8.20106 15.7726L13 10.2719L19.3206 17.5162L19.3199 17.5175Z" fill="white"/>
</svg>
