<svg width="20" height="20" viewBox="0 0 20 20" fill="none" xmlns="http://www.w3.org/2000/svg">
<path d="M8.13411 11.9722C7.65495 11.4938 7.36328 10.8438 7.36328 10.1147C7.36328 8.65382 8.53995 7.47632 9.99995 7.47632C10.7224 7.47632 11.3874 7.76882 11.8583 8.24715" stroke="white" stroke-width="1.5" stroke-linecap="round" stroke-linejoin="round"/>
<path d="M12.5873 10.5823C12.394 11.6573 11.5473 12.5056 10.4731 12.7006" stroke="white" stroke-width="1.5" stroke-linecap="round" stroke-linejoin="round"/>
<path d="M5.54567 14.5602C4.22317 13.5219 3.10317 12.0052 2.2915 10.1144C3.1115 8.21523 4.239 6.69023 5.56984 5.64356C6.89234 4.5969 8.41817 4.02856 9.99984 4.02856C11.5907 4.02856 13.1157 4.60523 14.4465 5.6594" stroke="white" stroke-width="1.5" stroke-linecap="round" stroke-linejoin="round"/>
<path d="M16.2063 7.49219C16.7796 8.25385 17.2838 9.13302 17.708 10.1139C16.0688 13.9114 13.1721 16.1989 9.99965 16.1989C9.28048 16.1989 8.57132 16.0822 7.88965 15.8547" stroke="white" stroke-width="1.5" stroke-linecap="round" stroke-linejoin="round"/>
<path d="M16.5727 3.54126L3.42773 16.6863" stroke="white" stroke-width="1.5" stroke-linecap="round" stroke-linejoin="round"/>
</svg>
