<svg width="95" height="95" viewBox="0 0 95 95" fill="none" xmlns="http://www.w3.org/2000/svg">
<path d="M84.0459 47.8296C84.0459 68.035 67.6107 84.4663 47.273 84.4663C26.9352 84.4663 10.5 68.035 10.5 47.8296C10.5 27.6242 26.9352 11.1929 47.273 11.1929C67.6107 11.1929 84.0459 27.6242 84.0459 47.8296Z" stroke="white" stroke-opacity="0.2" stroke-width="21"/>
<g clip-path="url(#clip0_1439_51556)">
<ellipse cx="47.2746" cy="47.8298" rx="31.5153" ry="31.4245" fill="black"/>
<path d="M47.2729 10.1201C26.4186 10.1201 9.45459 27.0369 9.45459 47.8295C9.45459 68.6221 26.4186 85.5389 47.2729 85.5389C68.1273 85.5389 85.0913 68.6221 85.0913 47.8295C85.0913 27.0369 68.1273 10.1201 47.2729 10.1201ZM62.3074 49.1506L40.2467 63.2917C39.9882 63.4589 39.6896 63.5418 39.3942 63.5418C39.1357 63.5418 38.874 63.4773 38.6402 63.35C38.1323 63.0738 37.8184 62.5459 37.8184 61.9705V33.6885C37.8184 33.1131 38.1323 32.5852 38.6402 32.309C39.1388 32.0359 39.7635 32.0527 40.2467 32.3673L62.3074 46.5083C62.7568 46.7968 63.0306 47.2955 63.0306 47.8295C63.0306 48.3635 62.7568 48.8621 62.3074 49.1506Z" fill="white"/>
</g>
<defs>
<clipPath id="clip0_1439_51556">
<rect x="9.45459" y="10.1201" width="75.6367" height="75.4188" rx="10" fill="white"/>
</clipPath>
</defs>
</svg>
