<svg width="22" height="20" viewBox="0 0 22 20" fill="none" xmlns="http://www.w3.org/2000/svg">
<path d="M10.8682 15.8334C10.6883 15.8343 10.5122 15.786 10.3623 15.6945C10.2124 15.603 10.0955 15.4725 10.0265 15.3196C9.95753 15.1667 9.93958 14.9984 9.97497 14.8361C10.0104 14.6738 10.0975 14.5249 10.2252 14.4084L15.0253 10L10.2252 5.59169C10.0768 5.43227 9.99928 5.22721 10.0081 5.01748C10.0169 4.80775 10.1114 4.6088 10.2727 4.46039C10.434 4.31197 10.6502 4.22503 10.8781 4.21693C11.1061 4.20883 11.3289 4.28017 11.5022 4.41669L16.9363 9.41669C17.105 9.57282 17.1997 9.78403 17.1997 10.0042C17.1997 10.2243 17.105 10.4356 16.9363 10.5917L11.5022 15.5917C11.3335 15.7456 11.1058 15.8324 10.8682 15.8334Z" fill="#FFCB65"/>
<path d="M5.43414 15.8334C5.25425 15.8344 5.07813 15.786 4.92822 15.6945C4.77831 15.603 4.66141 15.4725 4.59243 15.3196C4.52345 15.1668 4.5055 14.9985 4.54089 14.8362C4.57627 14.6739 4.66338 14.525 4.79111 14.4084L9.59123 10.0001L4.79111 5.59174C4.62057 5.43482 4.52475 5.22199 4.52475 5.00007C4.52475 4.77816 4.62057 4.56533 4.79111 4.40841C4.96165 4.25149 5.19296 4.16333 5.43414 4.16333C5.67533 4.16333 5.90664 4.25149 6.07718 4.40841L11.5113 9.40841C11.68 9.56454 11.7747 9.77575 11.7747 9.99591C11.7747 10.2161 11.68 10.4273 11.5113 10.5834L6.07718 15.5834C5.9933 15.6621 5.89327 15.7248 5.78289 15.7677C5.67251 15.8106 5.55397 15.8329 5.43414 15.8334Z" fill="#FFCB65"/>
</svg>
