<svg width="15" height="16" viewBox="0 0 15 16" fill="none" xmlns="http://www.w3.org/2000/svg">
<path d="M1.74752 15.2123H1.16026C0.622522 15.2123 0.190918 14.7807 0.190918 14.243V5.92222C0.190918 5.39156 0.622522 4.95288 1.16026 4.95288H1.74752C2.28526 4.95288 2.71686 5.39156 2.71686 5.92222V14.2359C2.71686 14.7807 2.28526 15.2123 1.74752 15.2123Z" fill="white"/>
<path d="M5.78072 15.2126H5.19346C4.65572 15.2126 4.22412 14.781 4.22412 14.2433V6.41783C4.22412 5.88717 4.65572 5.44849 5.19346 5.44849H5.78072C6.31846 5.44849 6.75006 5.88009 6.75006 6.41783V14.2362C6.75006 14.781 6.31846 15.2126 5.78072 15.2126Z" fill="white"/>
<path d="M9.81374 15.2123H9.22648C8.68874 15.2123 8.25714 14.7807 8.25714 14.243V5.92222C8.25714 5.38448 8.68874 4.95288 9.22648 4.95288H9.81374C10.3515 4.95288 10.7831 5.38448 10.7831 5.92222V14.2359C10.7831 14.7807 10.3515 15.2123 9.81374 15.2123Z" fill="white"/>
<path d="M13.8466 15.2126H13.2594C12.7216 15.2126 12.29 14.781 12.29 14.2433V6.41783C12.29 5.88009 12.7216 5.44849 13.2594 5.44849H13.8466C14.3844 5.44849 14.816 5.88009 14.816 6.41783V14.2362C14.816 14.781 14.3844 15.2126 13.8466 15.2126Z" fill="white"/>
<path d="M15 2.12264L13.1675 0V1.48585H0.601415C0.268868 1.48585 0 1.76887 0 2.12264C0 2.47642 0.268868 2.75943 0.601415 2.75943H13.1675V4.29481L15 2.12264Z" fill="white"/>
</svg>
