<svg width="20" height="21" viewBox="0 0 20 21" fill="none" xmlns="http://www.w3.org/2000/svg">
<path d="M17.91 14.269H13.38C13.1148 14.269 12.8604 14.3743 12.6729 14.5618C12.4854 14.7493 12.38 15.0037 12.38 15.2689C12.38 15.534 12.4854 15.7884 12.6729 15.9759C12.8604 16.1634 13.1148 16.2688 13.38 16.2688H15.78C14.6769 17.4214 13.2544 18.2179 11.6952 18.5559C10.1359 18.894 8.51121 18.7581 7.02978 18.1658C5.54834 17.5735 4.27787 16.5518 3.38159 15.232C2.48531 13.9122 2.00418 12.3546 2 10.7593C2 10.4941 1.89464 10.2398 1.70711 10.0523C1.51957 9.86476 1.26522 9.75941 1 9.75941C0.734784 9.75941 0.48043 9.86476 0.292893 10.0523C0.105357 10.2398 0 10.4941 0 10.7593C0.00528666 12.7119 0.582221 14.6202 1.6596 16.2488C2.73699 17.8773 4.26767 19.1548 6.06274 19.9236C7.85782 20.6924 9.83873 20.9188 11.761 20.575C13.6833 20.2311 15.4628 19.332 16.88 17.9886V19.7584C16.88 20.0236 16.9854 20.2779 17.1729 20.4654C17.3604 20.653 17.6148 20.7583 17.88 20.7583C18.1452 20.7583 18.3996 20.653 18.5871 20.4654C18.7746 20.2779 18.88 20.0236 18.88 19.7584V15.2589C18.8775 15.0005 18.7752 14.7532 18.5943 14.5686C18.4135 14.3841 18.1683 14.2767 17.91 14.269ZM13 10.7593C13 10.166 12.8241 9.58607 12.4944 9.09277C12.1648 8.59947 11.6962 8.21499 11.1481 7.98795C10.5999 7.76091 9.99667 7.70151 9.41473 7.81725C8.83279 7.933 8.29824 8.21869 7.87868 8.6382C7.45912 9.05772 7.1734 9.59222 7.05764 10.1741C6.94189 10.756 7.0013 11.3591 7.22836 11.9072C7.45542 12.4554 7.83994 12.9239 8.33329 13.2535C8.82664 13.5831 9.40666 13.759 10 13.759C10.7956 13.759 11.5587 13.443 12.1213 12.8804C12.6839 12.3179 13 11.5549 13 10.7593ZM9 10.7593C9 10.5616 9.05865 10.3682 9.16853 10.2038C9.27841 10.0394 9.43459 9.91121 9.61732 9.83553C9.80004 9.75985 10.0011 9.74004 10.1951 9.77863C10.3891 9.81721 10.5673 9.91244 10.7071 10.0523C10.847 10.1921 10.9422 10.3703 10.9808 10.5642C11.0194 10.7582 10.9996 10.9593 10.9239 11.142C10.8482 11.3247 10.72 11.4808 10.5556 11.5907C10.3911 11.7006 10.1978 11.7592 10 11.7592C9.73478 11.7592 9.48043 11.6539 9.29289 11.4663C9.10536 11.2788 9 11.0245 9 10.7593ZM10 0.760315C7.43639 0.767626 4.97349 1.75913 3.12 3.53004V1.76021C3.12 1.49502 3.01464 1.2407 2.82711 1.05318C2.63957 0.865661 2.38522 0.760315 2.12 0.760315C1.85478 0.760315 1.60043 0.865661 1.41289 1.05318C1.22536 1.2407 1.12 1.49502 1.12 1.76021V6.25976C1.12 6.52495 1.22536 6.77928 1.41289 6.9668C1.60043 7.15432 1.85478 7.25966 2.12 7.25966H6.62C6.88522 7.25966 7.13957 7.15432 7.32711 6.9668C7.51464 6.77928 7.62 6.52495 7.62 6.25976C7.62 5.99457 7.51464 5.74025 7.32711 5.55273C7.13957 5.36521 6.88522 5.25986 6.62 5.25986H4.22C5.32247 4.10785 6.74409 3.31156 8.3024 2.9732C9.86071 2.63484 11.4846 2.76986 12.9656 3.36092C14.4466 3.95197 15.7172 4.9721 16.6142 6.29036C17.5113 7.60862 17.9938 9.16486 18 10.7593C18 11.0245 18.1054 11.2788 18.2929 11.4663C18.4804 11.6539 18.7348 11.7592 19 11.7592C19.2652 11.7592 19.5196 11.6539 19.7071 11.4663C19.8946 11.2788 20 11.0245 20 10.7593C20 9.44623 19.7413 8.146 19.2388 6.93286C18.7362 5.71973 17.9997 4.61745 17.0711 3.68895C16.1425 2.76046 15.0401 2.02394 13.8268 1.52144C12.6136 1.01895 11.3132 0.760315 10 0.760315Z" fill="white"/>
</svg>
