<svg width="93" height="93" viewBox="0 0 93 93" fill="none" xmlns="http://www.w3.org/2000/svg">
<path d="M4.22727 38.0455C3.10613 38.0455 2.03091 37.6001 1.23814 36.8073C0.445372 36.0145 0 34.9393 0 33.8182V21.1364C0.00660067 15.5327 2.23558 10.1604 6.19799 6.19799C10.1604 2.23558 15.5327 0.00660067 21.1364 0H33.8182C34.9393 0 36.0145 0.445372 36.8073 1.23814C37.6001 2.03091 38.0455 3.10613 38.0455 4.22727C38.0455 5.34841 37.6001 6.42364 36.8073 7.21641C36.0145 8.00917 34.9393 8.45455 33.8182 8.45455H21.1364C17.7741 8.45824 14.5505 9.79554 12.173 12.173C9.79554 14.5505 8.45824 17.7741 8.45455 21.1364V33.8182C8.45455 34.9393 8.00917 36.0145 7.21641 36.8073C6.42364 37.6001 5.34841 38.0455 4.22727 38.0455ZM93 33.8182V21.1364C92.9934 15.5327 90.7644 10.1604 86.802 6.19799C82.8396 2.23558 77.4673 0.00660067 71.8636 0H59.1818C58.0607 0 56.9854 0.445372 56.1927 1.23814C55.3999 2.03091 54.9545 3.10613 54.9545 4.22727C54.9545 5.34841 55.3999 6.42364 56.1927 7.21641C56.9854 8.00917 58.0607 8.45455 59.1818 8.45455H71.8636C75.2259 8.45824 78.4495 9.79554 80.827 12.173C83.2045 14.5505 84.5418 17.7741 84.5455 21.1364V33.8182C84.5455 34.9393 84.9908 36.0145 85.7836 36.8073C86.5764 37.6001 87.6516 38.0455 88.7727 38.0455C89.8939 38.0455 90.9691 37.6001 91.7619 36.8073C92.5546 36.0145 93 34.9393 93 33.8182ZM93 71.8636V59.1818C93 58.0607 92.5546 56.9854 91.7619 56.1927C90.9691 55.3999 89.8939 54.9545 88.7727 54.9545C87.6516 54.9545 86.5764 55.3999 85.7836 56.1927C84.9908 56.9854 84.5455 58.0607 84.5455 59.1818V71.8636C84.5418 75.2259 83.2045 78.4495 80.827 80.827C78.4495 83.2045 75.2259 84.5418 71.8636 84.5455H59.1818C58.0607 84.5455 56.9854 84.9908 56.1927 85.7836C55.3999 86.5764 54.9545 87.6516 54.9545 88.7727C54.9545 89.8939 55.3999 90.9691 56.1927 91.7619C56.9854 92.5546 58.0607 93 59.1818 93H71.8636C77.4673 92.9934 82.8396 90.7644 86.802 86.802C90.7644 82.8396 92.9934 77.4673 93 71.8636ZM38.0455 88.7727C38.0455 87.6516 37.6001 86.5764 36.8073 85.7836C36.0145 84.9908 34.9393 84.5455 33.8182 84.5455H21.1364C17.7741 84.5418 14.5505 83.2045 12.173 80.827C9.79554 78.4495 8.45824 75.2259 8.45455 71.8636V59.1818C8.45455 58.0607 8.00917 56.9854 7.21641 56.1927C6.42364 55.3999 5.34841 54.9545 4.22727 54.9545C3.10613 54.9545 2.03091 55.3999 1.23814 56.1927C0.445372 56.9854 0 58.0607 0 59.1818V71.8636C0.00660067 77.4673 2.23558 82.8396 6.19799 86.802C10.1604 90.7644 15.5327 92.9934 21.1364 93H33.8182C34.9393 93 36.0145 92.5546 36.8073 91.7619C37.6001 90.9691 38.0455 89.8939 38.0455 88.7727ZM67.6364 46.5C67.6364 42.3196 66.3967 38.2331 64.0742 34.7573C61.7518 31.2814 58.4507 28.5723 54.5885 26.9725C50.7264 25.3728 46.4766 24.9542 42.3765 25.7698C38.2764 26.5853 34.5103 28.5984 31.5543 31.5543C28.5984 34.5103 26.5853 38.2764 25.7698 42.3765C24.9542 46.4766 25.3728 50.7264 26.9725 54.5885C28.5723 58.4507 31.2814 61.7518 34.7573 64.0742C38.2331 66.3967 42.3196 67.6364 46.5 67.6364C52.1037 67.6298 57.476 65.4008 61.4384 61.4384C65.4008 57.476 67.6298 52.1037 67.6364 46.5ZM59.1818 46.5C59.1818 49.0082 58.438 51.4601 57.0445 53.5456C55.651 55.6312 53.6704 57.2566 51.3531 58.2165C49.0358 59.1763 46.4859 59.4275 44.0259 58.9381C41.5659 58.4488 39.3062 57.241 37.5326 55.4674C35.759 53.6938 34.5512 51.4341 34.0619 48.9741C33.5725 46.5141 33.8237 43.9642 34.7835 41.6469C35.7434 39.3296 37.3688 37.3489 39.4544 35.9555C41.5399 34.562 43.9918 33.8182 46.5 33.8182C49.8623 33.8219 53.0858 35.1592 55.4633 37.5367C57.8408 39.9142 59.1781 43.1377 59.1818 46.5Z" fill="white"/>
</svg>
