<svg width="14" height="17" viewBox="0 0 14 17" fill="none" xmlns="http://www.w3.org/2000/svg">
<path d="M12.5125 5.3812L13.3088 4.62412C13.4735 4.46572 13.5661 4.25088 13.5661 4.02687C13.5661 3.80286 13.4735 3.58802 13.3088 3.42962C13.144 3.27122 12.9205 3.18223 12.6875 3.18223C12.4545 3.18223 12.231 3.27122 12.0663 3.42962L11.2788 4.19511C10.0525 3.28313 8.54601 2.78832 6.99565 2.78832C5.44529 2.78832 3.93879 3.28313 2.71252 4.19511L1.91627 3.42121C1.75035 3.26281 1.52576 3.17426 1.29193 3.17505C1.05809 3.17584 0.834164 3.2659 0.669398 3.42541C0.504632 3.58493 0.412529 3.80084 0.413349 4.02564C0.41417 4.25044 0.507847 4.46572 0.673773 4.62412L1.47877 5.38961C0.518911 6.56522 -0.00191027 8.01696 2.29504e-05 9.51148C-0.00283452 10.5844 0.261178 11.6424 0.770043 12.5972C1.27891 13.5521 2.01788 14.3761 2.92532 15.0007C3.83275 15.6252 4.88236 16.0321 5.98661 16.1874C7.09085 16.3427 8.21772 16.242 9.27323 15.8936C10.3287 15.5451 11.2823 14.9592 12.0544 14.1845C12.8265 13.4098 13.3947 12.4689 13.7117 11.4402C14.0287 10.4115 14.0852 9.32481 13.8766 8.27083C13.668 7.21686 13.2003 6.2261 12.5125 5.3812ZM7.00002 14.5587C5.96167 14.5587 4.94664 14.2627 4.08328 13.7081C3.21992 13.1535 2.54702 12.3652 2.14966 11.443C1.7523 10.5207 1.64833 9.50588 1.8509 8.52682C2.05347 7.54777 2.55349 6.64844 3.28771 5.94258C4.02194 5.23672 4.9574 4.75602 5.9758 4.56127C6.9942 4.36653 8.0498 4.46648 9.00911 4.84849C9.96842 5.2305 10.7884 5.87741 11.3652 6.70741C11.9421 7.53742 12.25 8.51324 12.25 9.51148C12.25 10.8501 11.6969 12.1339 10.7123 13.0804C9.72777 14.0269 8.39241 14.5587 7.00002 14.5587ZM5.25002 1.9407H8.75002C8.98209 1.9407 9.20465 1.85207 9.36874 1.69432C9.53284 1.53656 9.62502 1.3226 9.62502 1.0995C9.62502 0.876399 9.53284 0.662437 9.36874 0.504682C9.20465 0.346927 8.98209 0.258301 8.75002 0.258301H5.25002C5.01796 0.258301 4.7954 0.346927 4.6313 0.504682C4.46721 0.662437 4.37502 0.876399 4.37502 1.0995C4.37502 1.3226 4.46721 1.53656 4.6313 1.69432C4.7954 1.85207 5.01796 1.9407 5.25002 1.9407ZM7.87502 6.98789C7.87502 6.76479 7.78284 6.55083 7.61874 6.39307C7.45465 6.23532 7.23209 6.14669 7.00002 6.14669C6.76796 6.14669 6.5454 6.23532 6.3813 6.39307C6.21721 6.55083 6.12502 6.76479 6.12502 6.98789V8.57775C5.9269 8.74812 5.78725 8.9723 5.72455 9.22063C5.66186 9.46897 5.67907 9.72975 5.77392 9.96848C5.86877 10.2072 6.03678 10.4126 6.25572 10.5575C6.47466 10.7024 6.73421 10.78 7.00002 10.78C7.26584 10.78 7.52539 10.7024 7.74433 10.5575C7.96327 10.4126 8.13128 10.2072 8.22612 9.96848C8.32097 9.72975 8.33819 9.46897 8.27549 9.22063C8.2128 8.9723 8.07315 8.74812 7.87502 8.57775V6.98789Z" fill="white"/>
</svg>
